<svg width="474.9351318359375px" height="116px" xmlns="http://www.w3.org/2000/svg" viewBox="12.532434082031244 17 474.9351318359375 116" style="background: rgba(0, 0, 0, 0);" preserveAspectRatio="xMidYMid"><defs><filter id="editing-hole" x="-100%" y="-100%" width="300%" height="300%"><feFlood flood-color="#000000" result="black"></feFlood><feMorphology operator="dilate" radius="2" in="SourceGraphic" result="erode"></feMorphology><feGaussianBlur in="erode" stdDeviation="4" result="blur"></feGaussianBlur><feOffset in="blur" dx="2" dy="2" result="offset"></feOffset><feComposite operator="atop" in="offset" in2="black" result="merge"></feComposite><feComposite operator="in" in="merge" in2="SourceGraphic" result="inner-shadow"></feComposite></filter></defs><g filter="url(#editing-hole)"><g transform="translate(83.69413822889328, 102.06999969482422)"><path d="M36.86-1.15L36.86 0L23.74 0L23.74-1.15L27.90-1.15L23.42-13.50L9.34-13.50L4.86-1.15L9.02-1.15L9.02 0L-0.64 0L-0.64-1.15L1.73-1.15L1.73-1.15Q2.62-1.15 2.94-2.05L2.94-2.05L17.02-40.32L19.20-40.32L33.28-2.05L33.28-2.05Q33.60-1.15 34.50-1.15L34.50-1.15L36.86-1.15ZM22.78-15.30L16.45-32.77L10.05-15.30L22.78-15.30ZM42.05 11.78L42.05 11.78L42.05-25.60L42.05-25.60Q42.05-26.50 41.15-26.50L41.15-26.50L38.14-26.50L38.14-27.65L41.28-27.65L41.28-27.65Q45.12-27.65 46.66-28.03L46.66-28.03L46.66-19.07L46.66-19.07Q47.74-23.68 50.14-26.05L50.14-26.05L50.14-26.05Q52.54-28.42 55.49-28.42L55.49-28.42L55.49-28.42Q59.52-28.42 62.59-24.38L62.59-24.38L62.59-24.38Q65.66-20.35 65.66-13.70L65.66-13.70L65.66-13.70Q65.66-7.04 62.18-3.14L62.18-3.14L62.18-3.14Q58.69 0.77 53.06 0.77L53.06 0.77L53.06 0.77Q49.54 0.77 46.66-0.96L46.66-0.96L46.66 11.78L46.66 11.78Q46.66 12.67 47.55 12.67L47.55 12.67L51.84 12.67L51.84 13.82L38.14 13.82L38.14 12.67L41.15 12.67L41.15 12.67Q42.05 12.67 42.05 11.78ZM60.80-13.57L60.80-13.57L60.80-13.57Q60.80-19.52 58.94-22.75L58.94-22.75L58.94-22.75Q57.09-25.98 54.24-25.98L54.24-25.98L54.24-25.98Q51.39-25.98 49.02-22.21L49.02-22.21L49.02-22.21Q46.66-18.43 46.66-11.33L46.66-11.33L46.66-2.69L46.66-2.69Q49.47-0.83 52.83-0.83L52.83-0.83L52.83-0.83Q56.19-0.83 58.50-4.22L58.50-4.22L58.50-4.22Q60.80-7.62 60.80-13.57ZM74.05 11.78L74.05 11.78L74.05-25.60L74.05-25.60Q74.05-26.50 73.15-26.50L73.15-26.50L70.14-26.50L70.14-27.65L73.28-27.65L73.28-27.65Q77.12-27.65 78.66-28.03L78.66-28.03L78.66-19.07L78.66-19.07Q79.74-23.68 82.14-26.05L82.14-26.05L82.14-26.05Q84.54-28.42 87.49-28.42L87.49-28.42L87.49-28.42Q91.52-28.42 94.59-24.38L94.59-24.38L94.59-24.38Q97.66-20.35 97.66-13.70L97.66-13.70L97.66-13.70Q97.66-7.04 94.18-3.14L94.18-3.14L94.18-3.14Q90.69 0.77 85.06 0.77L85.06 0.77L85.06 0.77Q81.54 0.77 78.66-0.96L78.66-0.96L78.66 11.78L78.66 11.78Q78.66 12.67 79.55 12.67L79.55 12.67L83.84 12.67L83.84 13.82L70.14 13.82L70.14 12.67L73.15 12.67L73.15 12.67Q74.05 12.67 74.05 11.78ZM92.80-13.57L92.80-13.57L92.80-13.57Q92.80-19.52 90.94-22.75L90.94-22.75L90.94-22.75Q89.09-25.98 86.24-25.98L86.24-25.98L86.24-25.98Q83.39-25.98 81.02-22.21L81.02-22.21L81.02-22.21Q78.66-18.43 78.66-11.33L78.66-11.33L78.66-2.69L78.66-2.69Q81.47-0.83 84.83-0.83L84.83-0.83L84.83-0.83Q88.19-0.83 90.50-4.22L90.50-4.22L90.50-4.22Q92.80-7.62 92.80-13.57ZM106.37-3.14L106.37-3.14L106.37-3.14Q102.78-7.04 102.78-13.82L102.78-13.82L102.78-13.82Q102.78-20.61 106.37-24.51L106.37-24.51L106.37-24.51Q109.95-28.42 115.71-28.42L115.71-28.42L115.71-28.42Q121.47-28.42 125.09-24.51L125.09-24.51L125.09-24.51Q128.70-20.61 128.70-13.82L128.70-13.82L128.70-13.82Q128.70-7.04 125.09-3.14L125.09-3.14L125.09-3.14Q121.47 0.77 115.71 0.77L115.71 0.77L115.71 0.77Q109.95 0.77 106.37-3.14ZM109.95-23.46L109.95-23.46L109.95-23.46Q107.65-19.90 107.65-13.82L107.65-13.82L107.65-13.82Q107.65-7.74 109.95-4.19L109.95-4.19L109.95-4.19Q112.26-0.64 115.71-0.64L115.71-0.64L115.71-0.64Q119.17-0.64 121.50-4.19L121.50-4.19L121.50-4.19Q123.84-7.74 123.84-13.82L123.84-13.82L123.84-13.82Q123.84-19.90 121.50-23.46L121.50-23.46L121.50-23.46Q119.17-27.01 115.71-27.01L115.71-27.01L115.71-27.01Q112.26-27.01 109.95-23.46ZM138.05-2.05L138.05-2.05L138.05-25.60L138.05-25.60Q138.05-26.50 137.15-26.50L137.15-26.50L134.14-26.50L134.14-27.65L137.28-27.65L137.28-27.65Q141.12-27.65 142.66-28.03L142.66-28.03L142.66-1.92L142.66-1.92Q142.66-1.15 143.55-1.15L143.55-1.15L146.56-1.15L146.56 0L134.14 0L134.14-1.15L137.15-1.15L137.15-1.15Q138.05-1.15 138.05-2.05ZM138.21-34.72L138.21-34.72L138.21-34.72Q137.34-35.58 137.34-36.86L137.34-36.86L137.34-36.86Q137.34-38.14 138.21-39.01L138.21-39.01L138.21-39.01Q139.07-39.87 140.35-39.87L140.35-39.87L140.35-39.87Q141.63-39.87 142.50-39.01L142.50-39.01L142.50-39.01Q143.36-38.14 143.36-36.86L143.36-36.86L143.36-36.86Q143.36-35.58 142.50-34.72L142.50-34.72L142.50-34.72Q141.63-33.86 140.35-33.86L140.35-33.86L140.35-33.86Q139.07-33.86 138.21-34.72ZM177.41-18.69L177.41-18.69L177.41-1.92L177.41-1.92Q177.41-1.15 178.30-1.15L178.30-1.15L181.31-1.15L181.31 0L169.79 0L169.79-1.15L171.90-1.15L171.90-1.15Q172.80-1.15 172.80-1.92L172.80-1.92L172.80-19.52L172.80-19.52Q172.80-22.78 171.36-24.35L171.36-24.35L171.36-24.35Q169.92-25.92 167.55-25.92L167.55-25.92L167.55-25.92Q164.22-25.92 162.05-21.98L162.05-21.98L162.05-21.98Q159.87-18.05 159.87-10.69L159.87-10.69L159.87-2.05L159.87-2.05Q159.87-1.15 160.77-1.15L160.77-1.15L162.88-1.15L162.88 0L151.36 0L151.36-1.15L154.37-1.15L154.37-1.15Q155.26-1.15 155.26-1.92L155.26-1.92L155.26-25.60L155.26-25.60Q155.26-26.50 154.37-26.50L154.37-26.50L151.36-26.50L151.36-27.65L154.50-27.65L154.50-27.65Q158.34-27.65 159.87-28.03L159.87-28.03L159.87-19.33L159.87-19.33Q162.05-28.42 169.47-28.42L169.47-28.42L169.47-28.42Q172.80-28.42 175.10-26.02L175.10-26.02L175.10-26.02Q177.41-23.62 177.41-18.69ZM192.38-34.43L192.38-34.43L193.34-34.43L193.34-27.65L199.74-27.65L199.74-26.50L193.34-26.50L193.34-4.80L193.34-4.80Q193.34-1.34 195.26-1.34L195.26-1.34L195.26-1.34Q196.16-1.34 196.83-2.18L196.83-2.18L196.83-2.18Q197.50-3.01 197.50-4.10L197.50-4.10L197.50-4.10Q197.50-5.18 197.31-6.14L197.31-6.14L198.53-6.34L198.53-6.34Q198.78-5.38 198.78-4.22L198.78-4.22L198.78-4.22Q198.78-1.92 197.41-0.58L197.41-0.58L197.41-0.58Q196.03 0.77 193.79 0.77L193.79 0.77L193.79 0.77Q191.55 0.77 190.14-1.06L190.14-1.06L190.14-1.06Q188.74-2.88 188.74-6.53L188.74-6.53L188.74-25.60L188.74-25.60Q188.74-26.50 187.84-26.50L187.84-26.50L184.83-26.50L184.83-27.65L187.97-27.65L187.97-27.65Q190.02-27.65 192.38-34.43ZM246.21-18.69L246.21-18.69L246.21-1.92L246.21-1.92Q246.21-1.15 247.10-1.15L247.10-1.15L250.11-1.15L250.11 0L238.59 0L238.59-1.15L240.70-1.15L240.70-1.15Q241.60-1.15 241.60-1.92L241.60-1.92L241.60-19.52L241.60-19.52Q241.60-22.78 240.26-24.35L240.26-24.35L240.26-24.35Q238.91-25.92 236.61-25.92L236.61-25.92L236.61-25.92Q233.41-25.92 231.36-21.79L231.36-21.79L231.36-21.79Q229.31-17.66 229.31-9.92L229.31-9.92L229.31-2.05L229.31-2.05Q229.31-1.15 230.21-1.15L230.21-1.15L233.22-1.15L233.22 0L221.70 0L221.70-1.15L223.81-1.15L223.81-1.15Q224.70-1.15 224.70-1.92L224.70-1.92L224.70-19.52L224.70-19.52Q224.70-22.78 223.36-24.35L223.36-24.35L223.36-24.35Q222.02-25.92 219.71-25.92L219.71-25.92L219.71-25.92Q216.51-25.92 214.46-21.79L214.46-21.79L214.46-21.79Q212.42-17.66 212.42-9.92L212.42-9.92L212.42-2.05L212.42-2.05Q212.42-1.15 213.31-1.15L213.31-1.15L215.42-1.15L215.42 0L203.90 0L203.90-1.15L206.91-1.15L206.91-1.15Q207.81-1.15 207.81-1.92L207.81-1.92L207.81-25.60L207.81-25.60Q207.81-26.50 206.91-26.50L206.91-26.50L203.90-26.50L203.90-27.65L207.04-27.65L207.04-27.65Q210.88-27.65 212.42-28.03L212.42-28.03L212.42-19.46L212.42-19.46Q214.53-28.42 221.50-28.42L221.50-28.42L221.50-28.42Q224.58-28.42 226.85-26.18L226.85-26.18L226.85-26.18Q229.12-23.94 229.31-19.39L229.31-19.39L229.31-19.39Q231.42-28.42 238.40-28.42L238.40-28.42L238.40-28.42Q241.60-28.42 243.90-26.02L243.90-26.02L243.90-26.02Q246.21-23.62 246.21-18.69ZM267.84-28.42L267.84-28.42L267.84-28.42Q272.26-28.42 274.82-25.47L274.82-25.47L274.82-25.47Q277.38-22.53 277.38-16.83L277.38-16.83L277.38-16.83Q277.38-15.68 277.25-14.27L277.25-14.27L259.78-14.27L259.78-13.82L259.78-13.82Q259.78-7.74 261.98-4.26L261.98-4.26L261.98-4.26Q264.19-0.77 267.68-0.77L267.68-0.77L267.68-0.77Q271.17-0.77 273.41-2.56L273.41-2.56L273.41-2.56Q275.65-4.35 276.48-7.68L276.48-7.68L277.70-7.42L277.70-7.42Q276.93-3.52 274.18-1.38L274.18-1.38L274.18-1.38Q271.42 0.77 267.84 0.77L267.84 0.77L267.84 0.77Q262.27 0.77 258.59-3.14L258.59-3.14L258.59-3.14Q254.91-7.04 254.91-13.79L254.91-13.79L254.91-13.79Q254.91-20.54 258.62-24.48L258.62-24.48L258.62-24.48Q262.34-28.42 267.84-28.42ZM272.96-19.01L272.96-19.01L272.96-19.01Q272.96-26.88 267.07-26.88L267.07-26.88L267.07-26.88Q264.13-26.88 262.05-23.68L262.05-23.68L262.05-23.68Q259.97-20.48 259.84-15.55L259.84-15.55L272.70-15.55L272.70-15.55Q272.96-17.73 272.96-19.01ZM309.50-18.69L309.50-18.69L309.50-1.92L309.50-1.92Q309.50-1.15 310.40-1.15L310.40-1.15L313.41-1.15L313.41 0L301.89 0L301.89-1.15L304-1.15L304-1.15Q304.90-1.15 304.90-1.92L304.90-1.92L304.90-19.52L304.90-19.52Q304.90-22.78 303.46-24.35L303.46-24.35L303.46-24.35Q302.02-25.92 299.65-25.92L299.65-25.92L299.65-25.92Q296.32-25.92 294.14-21.98L294.14-21.98L294.14-21.98Q291.97-18.05 291.97-10.69L291.97-10.69L291.97-2.05L291.97-2.05Q291.97-1.15 292.86-1.15L292.86-1.15L294.98-1.15L294.98 0L283.46 0L283.46-1.15L286.46-1.15L286.46-1.15Q287.36-1.15 287.36-1.92L287.36-1.92L287.36-25.60L287.36-25.60Q287.36-26.50 286.46-26.50L286.46-26.50L283.46-26.50L283.46-27.65L286.59-27.65L286.59-27.65Q290.43-27.65 291.97-28.03L291.97-28.03L291.97-19.33L291.97-19.33Q294.14-28.42 301.57-28.42L301.57-28.42L301.57-28.42Q304.90-28.42 307.20-26.02L307.20-26.02L307.20-26.02Q309.50-23.62 309.50-18.69ZM324.48-34.43L324.48-34.43L325.44-34.43L325.44-27.65L331.84-27.65L331.84-26.50L325.44-26.50L325.44-4.80L325.44-4.80Q325.44-1.34 327.36-1.34L327.36-1.34L327.36-1.34Q328.26-1.34 328.93-2.18L328.93-2.18L328.93-2.18Q329.60-3.01 329.60-4.10L329.60-4.10L329.60-4.10Q329.60-5.18 329.41-6.14L329.41-6.14L330.62-6.34L330.62-6.34Q330.88-5.38 330.88-4.22L330.88-4.22L330.88-4.22Q330.88-1.92 329.50-0.58L329.50-0.58L329.50-0.58Q328.13 0.77 325.89 0.77L325.89 0.77L325.89 0.77Q323.65 0.77 322.24-1.06L322.24-1.06L322.24-1.06Q320.83-2.88 320.83-6.53L320.83-6.53L320.83-25.60L320.83-25.60Q320.83-26.50 319.94-26.50L319.94-26.50L316.93-26.50L316.93-27.65L320.06-27.65L320.06-27.65Q322.11-27.65 324.48-34.43Z" fill="#ccc"></path></g></g><style>text {
  font-size: 64px;
  font-family: Arial Black;
  dominant-baseline: central;
  text-anchor: middle;
}</style></svg>