<?xml version="1.0" standalone="no"?>
<!DOCTYPE svg PUBLIC "-//W3C//DTD SVG 20010904//EN"
 "http://www.w3.org/TR/2001/REC-SVG-20010904/DTD/svg10.dtd">
<svg version="1.0" xmlns="http://www.w3.org/2000/svg"
 width="474.000000pt" height="719.000000pt" viewBox="0 0 474.000000 719.000000"
 preserveAspectRatio="xMidYMid meet">

<g transform="translate(0.000000,719.000000) scale(0.100000,-0.100000)"
fill="#000000" stroke="none">
<path d="M2163 6990 c15 -12 26 -25 23 -28 -3 -2 -12 0 -19 6 -10 9 -14 8 -14
-3 0 -8 4 -12 8 -9 4 2 11 -1 15 -7 5 -8 9 -8 14 1 6 10 16 7 40 -10 l33 -23
-18 26 c-13 20 -14 27 -4 27 31 0 -18 28 -61 35 l-45 7 28 -22z"/>
<path d="M2050 6980 c-8 -15 -8 -20 1 -20 7 0 9 -3 6 -7 -4 -3 -17 -1 -30 5
-28 14 -97 21 -90 9 3 -5 -4 -6 -15 -3 -12 4 -26 1 -36 -9 -9 -9 -21 -13 -27
-10 -6 4 -25 -8 -44 -26 -18 -19 -51 -49 -73 -67 -39 -32 -61 -72 -40 -72 7 0
7 -4 0 -13 -8 -10 -6 -16 9 -25 11 -7 17 -17 13 -23 -4 -8 -9 -8 -17 0 -17 17
-45 -6 -57 -47 -13 -50 -13 -55 6 -48 15 6 15 4 0 -18 -20 -32 -20 -37 0 -29
13 5 15 2 9 -15 -4 -14 -2 -22 5 -22 7 0 9 -9 5 -22 -3 -13 -3 -18 2 -12 4 6
18 16 30 23 14 7 20 18 18 32 -5 26 35 89 56 89 9 0 22 7 30 16 14 17 69 48
69 39 0 -3 14 2 32 11 22 11 48 15 85 12 29 -3 53 -2 53 2 0 7 -116 31 -140
28 -37 -3 -60 3 -60 17 0 8 9 15 19 15 19 0 19 2 5 35 -19 46 -13 44 20 -5 25
-38 29 -40 74 -39 38 1 42 2 22 9 -14 4 -22 8 -17 9 4 1 1 14 -8 31 -8 16 -14
42 -14 57 1 17 3 21 6 11 2 -10 9 -18 14 -18 5 0 10 -10 10 -22 1 -16 3 -18 6
-7 4 15 7 15 34 2 30 -15 40 -27 14 -17 -28 11 -15 -6 23 -30 22 -13 46 -31
55 -40 14 -14 23 -14 98 5 115 29 199 27 261 -5 45 -23 85 -26 72 -5 -3 5 7 4
21 -1 20 -8 24 -7 18 3 -4 6 -7 19 -6 27 1 8 -15 28 -36 45 -26 21 -37 37 -35
52 2 18 -11 31 -63 63 -81 52 -109 48 -64 -9 39 -48 39 -54 1 -46 -19 4 -36 2
-45 -5 -12 -10 -18 -10 -30 0 -13 11 -14 10 -9 -4 9 -23 -15 -20 -44 7 l-25
22 17 -26 c19 -30 12 -43 -16 -28 -10 5 -23 7 -29 4 -5 -4 -17 -1 -25 6 -12
10 -15 10 -12 -2 2 -9 -4 -13 -16 -11 -12 2 -16 -1 -10 -9 5 -9 2 -10 -9 -6
-10 3 -17 2 -17 -3 0 -13 -31 -1 -57 23 -25 23 -32 47 -8 27 18 -15 20 1 3 19
-11 10 -10 12 2 11 26 -4 41 0 36 8 -3 5 5 8 17 8 13 -1 21 4 20 12 -2 6 3 12
10 12 12 1 -51 39 -65 40 -4 0 -12 -9 -18 -20z m-85 -170 c3 -5 1 -10 -4 -10
-6 0 -11 5 -11 10 0 6 2 10 4 10 3 0 8 -4 11 -10z m-191 -15 c3 -9 0 -15 -9
-15 -8 0 -15 7 -15 15 0 8 4 15 9 15 5 0 11 -7 15 -15z m-39 -35 c-3 -5 -12
-10 -18 -10 -7 0 -6 4 3 10 19 12 23 12 15 0z"/>
<path d="M2077 6749 c7 -7 15 -10 18 -7 3 3 -2 9 -12 12 -14 6 -15 5 -6 -5z"/>
<path d="M2654 6738 c3 -13 6 -27 6 -31 0 -5 6 -5 13 -1 8 5 8 3 -1 -7 -11
-12 -15 -11 -26 4 -12 16 -14 15 -14 -10 0 -16 5 -36 10 -47 7 -12 7 -16 0
-12 -6 3 -10 -21 -10 -64 -1 -39 -3 -74 -6 -79 -3 -4 1 -46 8 -92 8 -46 12
-87 9 -91 -2 -5 1 -8 6 -8 7 0 11 -23 11 -55 0 -30 3 -55 8 -55 4 0 20 32 35
70 29 70 29 72 22 223 -6 153 -14 199 -43 250 -20 33 -37 36 -28 5z"/>
<path d="M2530 6731 c0 -5 7 -12 16 -15 24 -9 28 -7 14 9 -14 17 -30 20 -30 6z"/>
<path d="M1703 6511 c-9 -12 -18 -33 -18 -48 0 -16 -4 -34 -8 -40 -5 -7 -4
-13 1 -13 6 0 15 -14 21 -31 14 -40 15 -179 1 -179 -5 0 -10 8 -11 18 0 11 -2
12 -6 4 -3 -7 1 -19 7 -27 11 -13 15 -11 32 10 11 14 16 30 12 37 -4 7 -7 43
-6 80 2 46 -1 68 -9 68 -8 0 -8 4 -1 13 10 12 14 28 24 101 4 27 -18 31 -39 7z"/>
<path d="M2317 6379 c-30 -17 -10 -26 40 -18 26 4 55 9 63 9 21 3 -29 18 -60
19 -14 0 -33 -4 -43 -10z"/>
<path d="M1917 6340 c-47 -9 -71 -31 -63 -58 6 -19 8 -18 36 10 31 31 52 33
163 15 33 -5 35 6 5 27 -23 17 -76 19 -141 6z"/>
<path d="M1683 6290 c0 -25 2 -35 4 -22 2 12 2 32 0 45 -2 12 -4 2 -4 -23z"/>
<path d="M2090 6296 c0 -9 5 -16 10 -16 6 0 10 -6 10 -14 0 -8 7 -16 15 -20
23 -9 17 16 -10 43 -20 18 -25 20 -25 7z"/>
<path d="M2320 6303 c-16 -6 -30 -23 -30 -35 0 -15 28 -8 34 8 6 15 8 15 31 0
31 -20 51 -20 59 0 4 11 10 13 19 7 19 -15 56 -22 63 -12 15 25 -127 50 -176
32z"/>
<path d="M2741 6264 c-7 -8 -11 -17 -8 -20 8 -9 37 8 37 22 0 18 -11 17 -29
-2z"/>
<path d="M1947 6260 c-37 -7 -97 -53 -85 -65 7 -8 70 23 80 39 5 8 11 7 20 -2
19 -19 55 -14 72 10 14 19 16 19 22 5 6 -17 34 -24 34 -8 0 27 -60 36 -143 21z
m68 -10 c3 -5 1 -10 -4 -10 -6 0 -11 5 -11 10 0 6 2 10 4 10 3 0 8 -4 11 -10z"/>
<path d="M1661 6161 c16 -44 31 -50 27 -10 -2 22 -9 35 -20 37 -15 3 -16 0 -7
-27z"/>
<path d="M2680 6155 c0 -8 5 -15 10 -15 6 0 10 7 10 15 0 8 -4 15 -10 15 -5 0
-10 -7 -10 -15z"/>
<path d="M1727 6104 c-4 -4 -7 -19 -7 -33 0 -23 1 -24 16 -9 11 11 13 21 7 32
-5 9 -12 13 -16 10z"/>
<path d="M2083 5992 c-17 -2 -21 -10 -21 -33 1 -16 6 -29 12 -29 6 0 4 -5 -4
-10 -8 -5 -13 -10 -10 -10 54 -8 113 -5 125 6 7 8 20 14 29 14 8 0 22 7 31 16
8 9 22 13 30 10 8 -3 19 3 25 14 15 28 13 30 -25 30 -23 0 -37 -6 -44 -19 -14
-25 -62 -37 -76 -18 -15 20 -47 34 -72 29z"/>
<path d="M2455 5990 c3 -5 11 -10 16 -10 6 0 7 5 4 10 -3 6 -11 10 -16 10 -6
0 -7 -4 -4 -10z"/>
<path d="M1750 5981 c0 -6 4 -13 10 -16 6 -3 7 1 4 9 -7 18 -14 21 -14 7z"/>
<path d="M2400 5894 c-14 -3 -44 -7 -67 -10 -24 -3 -43 -10 -43 -15 0 -5 17
-7 39 -3 24 4 41 2 45 -5 11 -17 28 -13 61 14 32 26 28 28 -35 19z"/>
<path d="M1961 5862 c-9 -17 -2 -22 55 -45 73 -31 81 -32 66 -14 -11 13 -1 39
14 36 26 -4 64 2 64 12 0 6 -24 10 -63 8 -35 -1 -69 1 -75 5 -7 4 -17 4 -24 0
-7 -4 -8 -3 -4 4 4 7 1 12 -8 12 -8 0 -20 -8 -25 -18z"/>
<path d="M2258 5863 c7 -3 16 -2 19 1 4 3 -2 6 -13 5 -11 0 -14 -3 -6 -6z"/>
<path d="M1891 5804 c-1 -6 5 -24 13 -40 26 -52 24 -69 -6 -72 -16 -2 -28 -8
-28 -14 0 -5 7 -8 15 -4 11 4 15 -2 15 -25 0 -17 4 -28 9 -25 5 3 12 -1 15
-10 9 -24 8 -27 -10 -20 -14 5 -15 4 -5 -8 7 -8 20 -12 29 -9 14 6 15 4 4 -9
-10 -12 -10 -18 2 -28 9 -6 21 -8 27 -4 9 5 10 2 6 -9 -6 -15 2 -21 19 -14 4
1 11 -9 15 -22 6 -15 14 -21 25 -17 8 3 12 2 9 -4 -11 -18 -52 -10 -78 14 -24
23 -28 23 -37 8 -5 -9 -10 -12 -10 -7 0 6 -5 3 -10 -5 -6 -10 -10 -11 -10 -2
0 6 -6 12 -13 12 -7 0 -20 12 -29 28 l-17 27 -1 -26 c0 -29 36 -73 87 -108 43
-29 52 -27 17 5 -27 24 -27 25 -4 14 43 -21 62 -42 48 -52 -11 -6 -10 -8 0 -8
7 0 24 -11 38 -24 39 -36 101 -68 109 -56 3 5 -1 10 -10 10 -9 0 -13 5 -10 10
4 6 1 18 -7 27 -12 15 -11 15 10 4 18 -9 22 -9 20 1 -2 9 17 15 61 19 51 5 69
11 83 30 11 12 28 23 39 24 19 2 37 16 111 85 20 19 43 40 50 46 7 6 22 24 32
38 11 15 28 37 38 48 21 24 23 59 6 76 -19 19 -28 14 -28 -18 0 -33 -7 -37
-35 -16 -17 12 -21 12 -32 -3 -7 -9 -13 -22 -13 -30 0 -26 -72 -112 -115 -136
-45 -27 -115 -42 -115 -25 0 6 -5 10 -11 10 -6 0 -9 -6 -6 -14 4 -10 -11 -8
-59 8 -35 12 -64 27 -64 34 0 7 -4 11 -8 8 -4 -2 -23 19 -42 47 -19 29 -38 54
-42 55 -5 2 -8 10 -8 18 0 18 -36 91 -47 96 -5 1 -16 19 -25 38 -9 19 -17 30
-17 24z m596 -166 c-3 -8 -6 -5 -6 6 -1 11 2 17 5 13 3 -3 4 -12 1 -19z"/>
<path d="M2310 5799 c0 -5 5 -7 10 -4 6 3 10 8 10 11 0 2 -4 4 -10 4 -5 0 -10
-5 -10 -11z"/>
<path d="M2107 5794 c-8 -8 1 -24 14 -24 5 0 9 7 9 15 0 15 -12 20 -23 9z"/>
<path d="M2275 5790 c3 -5 8 -10 11 -10 2 0 4 5 4 10 0 6 -5 10 -11 10 -5 0
-7 -4 -4 -10z"/>
<path d="M2140 5780 c0 -5 10 -10 23 -10 18 0 19 2 7 10 -19 13 -30 13 -30 0z"/>
<path d="M2611 5754 c0 -11 3 -14 6 -6 3 7 2 16 -1 19 -3 4 -6 -2 -5 -13z"/>
<path d="M2490 5739 c0 -5 5 -7 10 -4 6 3 10 8 10 11 0 2 -4 4 -10 4 -5 0 -10
-5 -10 -11z"/>
<path d="M2580 5710 c0 -5 5 -10 10 -10 6 0 10 5 10 10 0 6 -4 10 -10 10 -5 0
-10 -4 -10 -10z"/>
<path d="M2792 5387 c13 -12 27 -30 31 -40 4 -10 15 -16 28 -14 12 1 24 -4 27
-12 3 -9 0 -11 -9 -6 -8 5 -11 4 -6 -1 5 -5 12 -9 17 -9 18 0 91 -75 84 -86
-5 -8 -3 -9 6 -4 10 6 12 4 7 -9 -4 -10 -3 -15 3 -11 6 3 10 1 10 -4 0 -6 5
-11 10 -11 11 0 -31 71 -61 104 -11 11 -19 24 -19 29 0 5 -7 7 -14 4 -10 -4
-13 -1 -10 7 3 9 -17 27 -53 50 -65 41 -87 47 -51 13z"/>
<path d="M1642 5312 c-10 -10 -27 -22 -37 -26 -16 -6 -17 -9 -5 -16 13 -9 8
-14 -11 -12 -4 1 -15 -8 -24 -18 -19 -21 -7 -28 13 -8 7 7 12 9 12 4 0 -14 53
34 72 64 20 33 8 40 -20 12z"/>
<path d="M1538 5173 c-26 -30 -30 -109 -11 -208 9 -49 17 -115 18 -146 0 -35
4 -55 11 -52 16 6 16 74 -2 128 -16 52 -30 281 -15 257 6 -10 10 -7 13 12 6
31 6 31 -14 9z"/>
<path d="M3000 5160 c0 -6 4 -9 9 -6 5 4 12 1 14 -4 3 -6 4 -5 3 2 -3 15 -26
23 -26 8z"/>
<path d="M2373 5139 c1 -7 -10 -15 -25 -19 -17 -5 -27 -4 -25 2 1 6 -3 12 -9
15 -16 6 -98 -88 -161 -184 -54 -83 -64 -105 -38 -83 8 7 15 9 15 5 0 -4 6 -3
13 3 10 9 26 -1 66 -43 62 -64 62 -59 17 -250 -52 -219 -54 -320 -21 -955 9
-157 20 -355 25 -440 6 -85 15 -382 22 -660 9 -396 14 -508 25 -521 7 -8 13
-21 13 -28 0 -6 11 -16 25 -21 35 -13 31 -27 -12 -37 -27 -6 -50 -5 -78 5 -22
8 -58 11 -79 9 -25 -4 -50 0 -69 9 -41 22 -122 34 -282 43 -132 7 -146 10
-229 45 -48 21 -92 34 -96 30 -10 -11 -113 -263 -146 -359 -25 -74 -54 -210
-54 -260 -1 -17 -13 -46 -28 -66 -15 -20 -60 -80 -101 -133 l-73 -97 10 -57
c18 -91 31 -181 37 -262 12 -147 72 -667 91 -792 l6 -38 509 0 510 0 -2 129
c-1 124 0 134 35 239 31 91 45 118 85 163 l48 54 46 -95 c39 -81 100 -223 190
-437 l22 -53 237 0 238 0 -5 28 c-3 15 -16 97 -30 182 -14 85 -30 180 -35 210
-9 52 -62 408 -150 1015 -21 149 -46 353 -55 454 -9 102 -18 187 -19 190 -2 3
-7 47 -11 96 -14 189 -34 327 -48 338 -14 12 -28 119 -42 337 -7 93 -36 309
-60 435 -93 499 -97 527 -94 755 2 181 0 213 -34 435 -21 132 -46 273 -57 313
-24 86 -25 123 -5 162 17 33 22 33 97 -3 31 -15 59 -27 62 -27 34 0 -93 127
-195 196 -52 34 -81 43 -76 23z m-138 -3248 c-6 -5 -28 -11 -50 -13 -35 -3
-41 -7 -47 -33 -7 -30 -7 -29 -5 5 1 49 2 50 60 50 32 0 47 -4 42 -9z m-765
-50 c0 -5 9 -7 20 -4 12 3 22 -1 26 -11 3 -9 12 -16 20 -16 8 0 14 -6 14 -14
0 -10 -7 -11 -35 -2 -19 6 -35 14 -35 18 0 5 -4 8 -10 8 -15 0 -12 -63 5 -87
12 -17 12 -23 1 -32 -7 -6 -21 -9 -30 -5 -20 8 -21 -9 -2 -26 8 -6 12 -18 9
-26 -4 -10 3 -14 27 -14 24 0 30 -3 23 -12 -13 -19 -16 -65 -4 -73 14 -8 14
-35 1 -35 -5 0 -10 8 -10 18 0 14 -2 15 -10 2 -6 -9 -5 -17 3 -22 8 -5 8 -13
-3 -32 -7 -14 -10 -29 -6 -33 4 -4 9 2 12 14 6 21 40 38 49 23 2 -4 0 -22 -5
-41 -14 -47 -13 -51 10 -37 27 17 33 6 16 -27 -8 -16 -13 -32 -10 -37 9 -14
22 1 29 32 4 19 13 30 24 30 23 0 63 -29 56 -41 -6 -8 8 -13 28 -10 4 0 7 -3
7 -9 0 -5 7 -10 15 -10 8 0 19 -9 25 -21 9 -16 14 -18 26 -8 10 8 14 8 14 0 0
-6 7 -11 15 -11 8 0 15 -4 15 -8 0 -14 78 -8 92 7 11 11 9 12 -10 6 -19 -5
-23 -2 -28 24 -6 27 -11 31 -33 29 -20 -2 -27 2 -29 20 -4 26 -19 29 -25 5 -3
-11 -5 -6 -6 11 -1 31 -25 55 -55 56 -12 0 -16 5 -12 16 4 12 1 14 -13 9 -13
-4 -28 3 -45 20 -14 14 -22 25 -19 25 3 0 -5 9 -18 21 -20 17 -21 22 -9 30 13
8 13 10 0 19 -10 7 -11 10 -2 10 7 0 17 -11 21 -24 10 -24 99 -96 120 -96 6 0
14 -6 17 -14 3 -8 13 -12 25 -9 12 3 19 0 19 -8 0 -11 2 -11 8 -2 6 9 11 6 21
-8 12 -20 11 -21 -18 -14 -18 4 -31 3 -31 -3 0 -9 64 -27 86 -24 15 3 54 -36
54 -55 0 -10 6 -14 19 -10 14 3 33 -8 62 -34 23 -21 50 -39 60 -39 10 0 21 -4
24 -10 3 -5 17 -10 30 -10 13 0 31 -7 39 -16 11 -10 16 -11 16 -3 0 7 8 5 21
-7 11 -10 32 -20 47 -22 15 -2 35 -11 46 -20 10 -9 20 -16 22 -14 12 7 23 0
18 -13 -7 -18 -67 -14 -179 11 -38 8 -81 16 -95 16 -14 0 -28 5 -32 11 -4 7
-11 7 -22 -2 -9 -8 -16 -9 -16 -3 0 11 -50 23 -92 23 -15 0 -30 5 -34 10 -4 8
-9 7 -15 -2 -6 -9 -12 -10 -16 -4 -17 22 -50 34 -62 22 -9 -9 -14 -9 -20 1 -4
7 -23 11 -47 10 -28 -2 -38 1 -36 10 9 45 10 102 2 102 -6 0 -10 -9 -10 -21 0
-11 -4 -17 -10 -14 -5 3 -10 15 -10 26 0 10 5 19 10 19 6 0 10 5 10 10 0 6 -7
10 -16 10 -8 0 -13 -4 -9 -9 3 -5 1 -12 -4 -15 -5 -4 -12 2 -14 11 -3 10 -5 2
-6 -19 -1 -21 4 -39 12 -41 9 -4 9 -8 -2 -15 -7 -5 -10 -15 -7 -21 4 -7 -1
-11 -13 -11 -18 0 -20 5 -16 36 3 25 1 34 -8 31 -7 -2 -11 -12 -9 -22 2 -9 -6
-26 -17 -37 -21 -19 -21 -19 -21 2 0 13 -7 20 -20 20 -13 0 -20 7 -20 20 0 11
4 20 9 20 5 0 9 15 8 34 -1 27 -4 32 -19 28 -27 -7 -21 7 8 18 24 10 25 30 1
30 -24 0 -35 67 -22 125 12 52 12 55 -5 55 -22 0 -35 50 -28 100 2 16 1 27 -4
24 -4 -3 -8 -1 -8 5 0 5 6 12 13 15 10 5 10 7 0 12 -7 3 -13 15 -12 27 0 12 3
16 6 10 8 -21 20 -15 18 10 -2 20 10 36 28 37 4 0 7 -4 7 -9z m685 -41 c3 -5
-1 -10 -9 -10 -9 0 -16 5 -16 10 0 6 4 10 9 10 6 0 13 -4 16 -10z m-485 -39
c18 -6 32 -6 35 0 4 5 11 9 16 9 6 0 7 -5 3 -11 -5 -8 1 -10 18 -6 22 6 25 3
25 -21 0 -21 -5 -27 -24 -28 -19 -2 -22 2 -18 16 6 20 -10 36 -20 21 -6 -10
-16 -7 -92 26 -39 17 -43 26 -8 17 17 -4 25 -2 26 7 1 9 3 7 6 -3 2 -9 17 -21
33 -27z m911 -54 c-8 -8 -11 -2 -11 19 0 40 14 54 18 19 2 -15 -1 -32 -7 -38z
m-367 -12 c96 -6 97 -17 1 -13 l-80 3 -2 40 c-1 38 -1 39 5 7 7 -33 7 -33 76
-37z m-629 -5 c-5 -8 -11 -8 -17 -2 -6 6 -7 16 -3 22 5 8 11 8 17 2 6 -6 7
-16 3 -22z m-205 0 c5 17 7 9 5 -25 -1 -31 -7 -49 -14 -47 -6 1 -11 -2 -11 -7
0 -5 -3 -16 -6 -25 -3 -9 -1 -16 6 -16 6 0 9 4 5 9 -3 6 3 15 14 21 18 9 20 7
18 -20 -1 -16 -5 -30 -9 -30 -5 0 -8 -5 -8 -10 0 -5 5 -9 12 -7 22 4 59 -275
37 -288 -5 -4 -7 -11 -4 -16 4 -5 -1 -9 -9 -9 -21 0 -20 19 1 42 9 10 11 18 6
18 -6 0 -16 -7 -23 -15 -10 -12 -16 -13 -24 -5 -8 8 -7 14 4 21 11 8 12 12 3
16 -7 2 -13 11 -13 18 0 7 6 15 13 18 6 2 8 8 4 13 -5 5 -24 -9 -43 -31 -19
-22 -34 -35 -34 -29 0 5 5 15 11 21 11 11 -3 51 -24 64 -11 8 0 49 14 49 6 0
5 10 -2 22 -13 25 -18 79 -7 72 13 -8 28 35 28 81 0 28 4 44 10 40 5 -3 7 0 4
8 -2 7 1 27 7 43 l13 29 4 -25 5 -25 7 25z m127 -20 c0 -29 -10 -39 -21 -22
-7 11 4 52 13 52 4 0 8 -13 8 -30z m135 -3 c20 -7 47 -25 58 -40 12 -15 25
-25 29 -23 9 6 71 -49 71 -63 0 -6 -7 -11 -15 -11 -8 0 -15 7 -15 15 0 9 -6
12 -15 9 -10 -4 -15 0 -15 15 0 18 -4 20 -25 15 -16 -4 -25 -2 -25 6 0 6 -4 9
-9 5 -5 -3 -18 6 -29 20 -11 14 -25 25 -32 25 -7 0 -10 7 -6 16 5 13 0 15 -27
10 -24 -5 -27 -4 -12 3 26 13 24 13 67 -2z m183 -17 c3 -5 1 -10 -4 -10 -6 0
-11 5 -11 10 0 6 2 10 4 10 3 0 8 -4 11 -10z m70 -20 c3 -5 1 -10 -4 -10 -6 0
-11 5 -11 10 0 6 2 10 4 10 3 0 8 -4 11 -10z m-575 -60 c0 -11 -4 -20 -9 -20
-5 0 -7 9 -4 20 3 11 7 20 9 20 2 0 4 -9 4 -20z m757 -22 c-3 -8 -6 -5 -6 6
-1 11 2 17 5 13 3 -3 4 -12 1 -19z m-159 -33 c-8 -18 -14 -22 -24 -15 -8 8
-13 7 -16 -2 -3 -9 -6 -9 -12 0 -6 9 19 26 61 41 2 1 -3 -10 -9 -24z m272 10
c7 -9 8 -15 2 -15 -5 0 -12 7 -16 15 -3 8 -4 15 -2 15 2 0 9 -7 16 -15z m-202
-24 c17 -7 32 -17 32 -22 0 -5 6 -9 13 -9 7 0 23 -9 35 -20 12 -11 30 -20 40
-20 11 0 25 -7 32 -15 11 -13 15 -13 21 -3 7 10 9 9 9 -4 0 -10 5 -18 10 -18
6 0 10 7 10 16 0 14 3 14 15 4 8 -7 15 -18 15 -25 0 -7 7 -18 15 -25 13 -11
14 -10 9 4 -4 11 -1 16 10 16 9 0 16 -7 16 -16 0 -12 6 -15 25 -10 14 4 25 2
25 -4 0 -5 -11 -10 -25 -10 -14 0 -25 -4 -25 -8 0 -5 -10 -8 -22 -7 -13 2 -22
8 -21 14 2 6 -2 11 -7 11 -5 0 -10 -5 -10 -11 0 -6 -6 -9 -12 -6 -7 2 -12 10
-10 17 2 9 -6 11 -26 7 -19 -4 -37 0 -53 11 -23 17 -51 32 -143 81 -28 15 -46
31 -46 42 0 16 18 31 30 25 3 -1 20 -8 38 -15z m-688 -165 c0 -2 -7 -7 -16
-10 -8 -3 -12 -2 -9 4 6 10 25 14 25 6z m1010 -16 c0 -5 -2 -10 -4 -10 -3 0
-8 5 -11 10 -3 6 -1 10 4 10 6 0 11 -4 11 -10z m60 -26 c0 -11 -6 -14 -16 -10
-9 3 -18 6 -20 6 -2 0 -4 9 -4 20 0 18 3 19 20 10 11 -6 20 -18 20 -26z m-736
-28 c-6 -16 -24 -23 -24 -8 0 10 22 33 27 28 2 -2 1 -11 -3 -20z m787 7 c12
-16 12 -17 -2 -6 -9 7 -19 10 -22 6 -4 -3 -7 -1 -7 5 0 17 16 15 31 -5z m304
-13 c3 -5 1 -10 -4 -10 -6 0 -11 5 -11 10 0 6 2 10 4 10 3 0 8 -4 11 -10z
m-138 -26 c-3 -3 -12 -4 -19 -1 -8 3 -5 6 6 6 11 1 17 -2 13 -5z m3 -41 c0
-16 -6 -36 -13 -45 -11 -14 -13 -11 -11 25 2 23 3 43 3 45 1 1 6 2 11 2 6 0
10 -12 10 -27z m-850 -73 c0 -5 -2 -10 -4 -10 -3 0 -8 5 -11 10 -3 6 -1 10 4
10 6 0 11 -4 11 -10z m664 -12 c-7 -11 -32 -10 -39 2 -3 6 4 9 19 8 13 -1 22
-6 20 -10z m-569 -18 c-3 -5 -10 -10 -16 -10 -5 0 -9 5 -9 10 0 6 7 10 16 10
8 0 12 -4 9 -10z m70 -158 c33 -7 85 -18 115 -24 30 -6 60 -14 65 -17 6 -3 33
-6 60 -6 36 0 49 -4 47 -13 -2 -9 4 -12 17 -7 12 3 21 0 25 -10 4 -12 -3 -15
-32 -15 -20 0 -53 5 -72 10 -21 6 -36 6 -38 1 -2 -5 -15 -6 -31 -1 -15 4 -69
11 -119 15 -51 4 -94 11 -97 15 -3 5 -14 6 -24 3 -25 -6 -215 26 -219 38 -2 5
-10 9 -18 9 -8 0 -14 4 -14 8 0 13 268 8 335 -6z m365 -72 c0 -5 -5 -10 -11
-10 -5 0 -7 5 -4 10 3 6 8 10 11 10 2 0 4 -4 4 -10z m-540 -70 c0 -5 7 -7 15
-4 9 4 15 0 15 -10 0 -12 -5 -13 -22 -7 -23 8 -37 31 -19 31 6 0 11 -4 11 -10z
m123 -15 c12 -1 49 -6 82 -10 33 -4 68 -12 78 -17 10 -5 25 -7 32 -4 8 3 17 1
20 -5 4 -5 11 -7 16 -4 5 4 9 2 9 -3 0 -5 15 -10 33 -10 59 -2 67 -3 67 -14 0
-7 -34 -8 -107 -3 -60 4 -126 8 -148 9 -22 1 -71 8 -108 16 -50 10 -66 17 -62
28 3 7 5 18 5 24 0 6 12 7 31 3 17 -4 40 -8 52 -10z m-203 -165 c0 -5 -4 -10
-10 -10 -5 0 -10 5 -10 10 0 6 5 10 10 10 6 0 10 -4 10 -10z m118 -10 c-10 -6
-31 -7 -55 -1 -38 9 -38 9 17 10 40 0 50 -2 38 -9z"/>
<path d="M1517 1365 c-4 -8 -2 -17 3 -20 6 -4 10 3 10 14 0 25 -6 27 -13 6z"/>
<path d="M1810 1370 c0 -5 12 -10 28 -9 24 0 25 1 7 9 -27 12 -35 12 -35 0z"/>
<path d="M1500 1310 c-13 -8 -12 -10 3 -10 9 0 17 5 17 10 0 12 -1 12 -20 0z"/>
<path d="M1914 1279 c-16 -10 -24 -19 -17 -19 6 0 15 5 18 10 3 6 15 10 26 10
11 0 17 -4 14 -10 -3 -5 -2 -10 4 -10 19 0 20 16 2 27 -14 9 -24 7 -47 -8z"/>
<path d="M1675 1240 c3 -5 8 -10 11 -10 2 0 4 5 4 10 0 6 -5 10 -11 10 -5 0
-7 -4 -4 -10z"/>
<path d="M1361 1644 c0 -11 3 -14 6 -6 3 7 2 16 -1 19 -3 4 -6 -2 -5 -13z"/>
<path d="M1341 1544 c0 -11 3 -14 6 -6 3 7 2 16 -1 19 -3 4 -6 -2 -5 -13z"/>
<path d="M1327 1513 c-11 -10 -8 -45 2 -38 6 3 9 14 8 25 -1 23 -1 22 -10 13z"/>
<path d="M1351 1494 c0 -11 3 -14 6 -6 3 7 2 16 -1 19 -3 4 -6 -2 -5 -13z"/>
<path d="M1810 5128 c0 -9 5 -20 11 -23 17 -11 18 -2 3 19 -12 17 -14 17 -14
4z"/>
<path d="M1830 5070 c0 -5 6 -10 14 -10 8 0 41 -37 75 -83 33 -46 70 -92 81
-102 11 -10 20 -24 20 -30 0 -18 27 -38 41 -30 6 4 7 10 2 14 -13 9 -156 181
-182 219 -21 30 -51 43 -51 22z"/>
<path d="M3046 5017 c3 -10 9 -15 12 -12 3 3 0 11 -7 18 -10 9 -11 8 -5 -6z"/>
<path d="M3090 4802 c0 -5 7 -17 15 -28 14 -18 14 -18 15 9 0 17 -5 27 -15 27
-8 0 -15 -4 -15 -8z"/>
<path d="M1597 4756 c-46 -17 -64 -32 -83 -67 -22 -43 -17 -47 11 -8 27 41 48
52 79 44 17 -5 18 -4 6 5 -12 9 -1 10 47 7 75 -6 126 -40 144 -95 7 -20 22
-59 34 -87 12 -27 25 -57 29 -65 3 -8 4 0 1 17 -2 18 -21 71 -42 118 -37 87
-72 123 -127 131 -11 2 -30 5 -41 8 -11 3 -37 -1 -58 -8z"/>
<path d="M3161 4704 c0 -11 3 -14 6 -6 3 7 2 16 -1 19 -3 4 -6 -2 -5 -13z"/>
<path d="M1479 4688 c-28 -53 -29 -91 -3 -188 14 -52 30 -99 35 -104 15 -16
11 7 -16 100 -29 99 -31 143 -10 184 9 17 13 30 11 30 -3 0 -11 -10 -17 -22z"/>
<path d="M3182 4600 c0 -14 2 -19 5 -12 2 6 2 18 0 25 -3 6 -5 1 -5 -13z"/>
<path d="M3191 4554 c0 -11 3 -14 6 -6 3 7 2 16 -1 19 -3 4 -6 -2 -5 -13z"/>
<path d="M3201 4504 c0 -11 3 -14 6 -6 3 7 2 16 -1 19 -3 4 -6 -2 -5 -13z"/>
<path d="M4407 4436 c-26 -35 -49 -71 -53 -80 -3 -9 -10 -14 -14 -11 -5 3 -39
-39 -77 -94 -57 -82 -72 -99 -93 -97 -16 1 -25 -5 -28 -16 -3 -14 1 -16 14
-11 21 8 20 7 -50 -99 -28 -42 -54 -74 -58 -71 -5 2 -7 -1 -6 -9 2 -9 -6 -12
-24 -10 -16 1 -28 -2 -28 -8 0 -5 8 -10 18 -11 10 0 12 -3 5 -6 -7 -2 -13 -11
-13 -18 0 -8 -24 -47 -52 -88 -29 -42 -81 -115 -115 -164 -34 -48 -126 -165
-205 -258 -286 -340 -282 -335 -256 -335 12 0 36 -7 52 -15 15 -8 32 -13 36
-10 12 8 80 -75 81 -99 1 -16 2 -17 6 -4 6 22 -41 113 -69 132 -12 9 -17 16
-10 16 6 0 11 6 10 12 -3 15 39 21 124 21 l58 -1 -20 26 c-26 32 -19 38 20 18
30 -14 31 -14 19 1 -11 13 -12 17 -1 21 10 3 10 9 -2 27 -15 23 -15 23 35 20
27 -1 51 1 54 4 9 16 -28 158 -50 186 l-23 31 30 36 c16 20 34 36 41 34 7 -1
9 -1 5 1 -9 5 40 73 50 72 23 -3 33 3 28 16 -3 9 8 31 27 53 17 20 43 53 56
71 180 255 275 393 366 526 60 88 122 179 139 202 48 69 24 59 -27 -11z m-77
-116 c-6 -11 -13 -20 -16 -20 -2 0 0 9 6 20 6 11 13 20 16 20 2 0 0 -9 -6 -20z"/>
<path d="M3211 4454 c0 -11 3 -14 6 -6 3 7 2 16 -1 19 -3 4 -6 -2 -5 -13z"/>
<path d="M3227 4385 c3 -22 7 -42 9 -44 8 -9 2 45 -6 64 -7 14 -8 8 -3 -20z"/>
<path d="M3242 4305 c0 -16 3 -39 8 -50 l9 -20 -1 20 c0 11 -4 34 -8 50 l-8
30 0 -30z"/>
<path d="M2027 3996 l-26 -33 20 -22 c19 -21 21 -21 49 -5 35 21 51 54 38 77
-15 28 -53 20 -81 -17z"/>
<path d="M1670 3951 c-15 -29 16 -60 65 -63 36 -3 40 -1 43 22 2 19 -5 29 -29
43 -40 22 -66 22 -79 -2z m55 -1 c3 -5 2 -10 -4 -10 -5 0 -13 5 -16 10 -3 6
-2 10 4 10 5 0 13 -4 16 -10z"/>
<path d="M3195 3960 c3 -5 11 -10 16 -10 6 0 7 5 4 10 -3 6 -11 10 -16 10 -6
0 -7 -4 -4 -10z"/>
<path d="M3430 3580 c0 -5 7 -7 15 -4 8 4 15 8 15 10 0 2 -7 4 -15 4 -8 0 -15
-4 -15 -10z"/>
<path d="M3406 3484 c-10 -26 -1 -27 41 -5 l38 20 -36 1 c-25 0 -39 -5 -43
-16z"/>
<path d="M1181 3454 c0 -11 3 -14 6 -6 3 7 2 16 -1 19 -3 4 -6 -2 -5 -13z"/>
<path d="M3412 3393 c-50 -49 -76 -89 -68 -108 3 -9 2 -13 -4 -10 -5 3 -15 -7
-22 -22 -7 -15 -42 -78 -79 -140 -61 -103 -69 -123 -48 -123 13 0 219 343 219
364 0 5 11 24 26 43 33 43 25 42 -24 -4z"/>
<path d="M1203 3323 c-15 -31 -18 -102 -4 -87 9 9 27 114 19 114 -1 0 -9 -12
-15 -27z"/>
<path d="M1806 3104 c-8 -21 1 -34 18 -28 8 3 12 14 9 25 -6 23 -19 25 -27 3z"/>
<path d="M3476 2987 c3 -9 1 -24 -6 -32 -6 -8 -8 -20 -4 -26 4 -8 3 -9 -4 -5
-6 4 -28 -1 -49 -9 -46 -20 -128 -12 -142 13 -9 15 -11 15 -32 -3 l-22 -20 12
23 c12 22 11 23 -8 13 -11 -6 -27 -8 -37 -4 -15 6 -15 4 1 -20 9 -15 21 -27
25 -27 5 0 15 -3 23 -6 8 -3 21 1 29 9 12 12 17 13 33 1 22 -17 17 -24 -21
-27 -15 -1 -29 -7 -31 -14 -5 -15 45 -53 62 -47 7 3 16 1 20 -5 10 -17 45 -14
39 4 -9 23 23 19 36 -4 13 -26 13 -31 -5 -31 -8 0 -15 -7 -15 -15 0 -17 25
-20 35 -5 3 6 15 10 26 10 12 0 19 7 19 19 0 23 -16 36 -25 21 -10 -16 -25
-12 -25 8 0 10 9 25 19 34 18 15 20 15 26 -5 7 -23 7 -23 31 53 4 12 6 13 14
0 13 -21 17 -10 9 30 -4 22 -7 27 -8 13 0 -13 -5 -23 -9 -23 -10 0 -10 43 0
51 4 3 1 14 -7 25 -13 16 -14 16 -9 1z m-6 -124 c0 -10 -4 -14 -8 -8 -4 6 -11
13 -16 18 -5 4 -2 7 7 7 10 0 17 -8 17 -17z"/>
<path d="M1756 2934 c-11 -28 -7 -44 9 -38 16 7 20 39 6 48 -5 3 -12 -1 -15
-10z"/>
<path d="M3345 2920 c3 -5 8 -10 11 -10 2 0 4 5 4 10 0 6 -5 10 -11 10 -5 0
-7 -4 -4 -10z"/>
<path d="M3558 2839 c5 -52 -7 -131 -19 -124 -5 3 -6 -1 -3 -9 3 -9 -3 -20
-15 -28 -12 -7 -21 -19 -21 -26 0 -7 -7 -15 -15 -18 -8 -4 -15 -11 -15 -18 0
-18 -108 -129 -119 -122 -5 4 -12 2 -16 -4 -3 -5 -13 -10 -22 -10 -13 0 -13 3
3 18 85 76 195 259 193 319 0 14 -2 13 -10 -5 -5 -14 -13 -20 -20 -16 -8 4 -9
3 -5 -5 11 -17 -57 -78 -86 -77 -15 1 -22 -4 -20 -13 3 -12 0 -12 -13 -1 -8 7
-18 10 -22 6 -3 -3 -1 -6 6 -6 6 0 -4 -14 -23 -30 l-34 -30 -52 50 c-28 27
-58 50 -66 50 -8 0 -14 3 -14 8 0 4 -9 13 -21 20 -17 11 -20 11 -13 0 10 -17
-18 5 -76 59 -25 23 -47 38 -48 32 -8 -21 92 -131 144 -160 38 -20 75 -89 62
-113 -9 -16 -8 -17 14 -5 12 7 30 20 39 31 9 10 21 18 26 18 5 0 24 11 43 25
21 15 38 21 43 16 11 -11 -1 -34 -14 -25 -5 3 -9 2 -8 -3 4 -25 -3 -35 -21
-30 -11 3 -18 1 -15 -3 3 -5 -24 -23 -60 -40 -36 -17 -65 -35 -65 -39 0 -4 10
-13 23 -20 12 -6 32 -28 45 -47 12 -19 29 -37 37 -40 23 -9 70 17 88 48 9 15
23 28 32 28 8 0 15 4 15 8 0 4 13 15 29 25 26 15 29 15 27 0 0 -9 5 -18 13
-21 8 -3 11 0 7 6 -4 6 3 17 14 24 12 7 39 40 62 73 39 58 40 61 29 105 -6 25
-16 69 -22 97 -13 64 -26 77 -21 22z m-198 -369 c0 -5 -2 -10 -4 -10 -3 0 -8
5 -11 10 -3 6 -1 10 4 10 6 0 11 -4 11 -10z"/>
<path d="M2887 2809 c-10 -11 -14 -25 -10 -32 4 -7 6 -19 5 -28 -1 -8 4 -29
13 -45 8 -16 15 -35 15 -42 0 -7 4 -11 9 -8 15 9 -4 -56 -33 -113 -29 -59 -33
-91 -12 -91 8 0 36 -11 62 -25 59 -31 92 -32 103 -3 8 21 8 21 14 -3 5 -19 9
-21 19 -11 9 9 10 19 1 42 -10 27 -9 30 8 30 11 0 17 5 14 10 -3 6 -22 10 -41
10 -19 0 -34 4 -34 9 0 6 16 7 35 4 30 -5 34 -3 29 11 -5 13 0 16 25 16 17 0
31 4 31 10 0 5 -18 33 -40 62 -22 29 -43 62 -46 73 -3 11 -18 29 -34 40 -17
11 -30 26 -30 33 0 6 -6 12 -13 12 -7 0 -23 14 -37 30 -29 35 -29 35 -53 9z
m163 -209 c0 -5 -2 -10 -4 -10 -3 0 -8 5 -11 10 -3 6 -1 10 4 10 6 0 11 -4 11
-10z m-76 -36 c3 -8 2 -12 -4 -9 -6 3 -10 10 -10 16 0 14 7 11 14 -7z m36 -16
c0 -19 -16 -5 -17 14 -2 18 0 20 7 8 5 -8 10 -18 10 -22z m65 22 c3 -5 1 -10
-4 -10 -6 0 -11 5 -11 10 0 6 2 10 4 10 3 0 8 -4 11 -10z"/>
<path d="M1696 2732 c-4 -13 -5 -26 -2 -29 10 -11 18 4 14 29 l-4 23 -8 -23z"/>
<path d="M3260 2343 c0 -10 -3 -28 -6 -40 -5 -17 -2 -23 11 -23 12 0 15 5 11
16 -6 14 -4 15 9 4 13 -11 19 -11 31 2 14 14 13 17 -12 37 -33 26 -44 27 -44
4z"/>
<path d="M1557 2291 c-3 -12 -1 -21 3 -21 14 0 19 15 11 29 -6 9 -10 7 -14 -8z"/>
<path d="M1516 2194 c-10 -27 -7 -32 32 -39 20 -3 48 -9 62 -12 22 -6 23 -5
10 8 -26 23 -79 59 -89 59 -5 0 -12 -7 -15 -16z"/>
</g>
</svg>
