<?xml version="1.0" standalone="no"?>
<!DOCTYPE svg PUBLIC "-//W3C//DTD SVG 20010904//EN"
 "http://www.w3.org/TR/2001/REC-SVG-20010904/DTD/svg10.dtd">
<svg version="1.0" xmlns="http://www.w3.org/2000/svg"
 width="681.000000pt" height="1024.000000pt" viewBox="0 0 681.000000 1024.000000"
 preserveAspectRatio="xMidYMid meet">

<g transform="translate(0.000000,1024.000000) scale(0.100000,-0.100000)"
fill="#000000" stroke="none">
<path d="M0 5120 l0 -5120 858 1 c521 0 845 4 827 10 -29 8 -55 33 -55 52 0 5
7 4 15 -3 23 -19 20 24 -5 75 -20 41 -44 147 -38 166 5 15 64 -71 72 -104 4
-15 10 -25 15 -22 11 6 41 -38 41 -60 0 -8 4 -23 8 -33 5 -9 15 -30 23 -47 13
-27 20 -30 69 -33 35 -1 50 1 41 7 -10 6 -10 10 -1 16 8 5 6 11 -6 19 -10 8
-18 28 -18 47 -1 19 -5 39 -8 45 -4 6 0 23 8 38 16 32 19 49 4 26 -8 -12 -10
-11 -10 6 0 33 -21 84 -33 84 -7 0 -12 15 -12 35 0 19 3 35 8 35 16 0 5 17
-23 33 -17 11 -30 27 -30 38 0 11 -29 49 -65 84 -48 48 -65 73 -65 93 0 15 -9
88 -20 162 -22 149 -25 194 -11 170 5 -8 12 -46 16 -85 6 -54 9 -65 16 -47 5
12 6 41 4 65 -5 47 9 84 19 51 30 -101 66 -250 62 -260 -3 -8 -1 -16 3 -19 22
-13 21 56 -1 155 -26 112 -30 152 -16 148 17 -6 46 -81 54 -143 7 -53 6 -53
35 24 12 32 13 33 21 11 4 -12 5 -27 1 -32 -3 -7 -1 -8 6 -4 7 5 9 16 5 28 -4
14 -2 18 5 14 6 -4 11 -17 12 -29 0 -21 1 -21 9 -2 5 11 9 15 9 8 1 -7 22 -36
47 -65 26 -28 57 -76 70 -105 13 -29 27 -53 30 -53 12 0 -8 157 -33 250 -33
126 -34 133 -23 140 6 4 -8 27 -32 55 -37 42 -39 47 -18 40 22 -7 23 -6 11 9
-7 9 -19 16 -25 16 -15 1 -70 50 -63 56 3 3 16 1 29 -6 22 -11 22 -10 -2 9
-51 41 -111 115 -86 105 10 -4 16 -1 16 9 0 44 61 11 66 -36 4 -37 23 -77 36
-77 22 0 37 71 32 143 -6 81 8 88 30 14 9 -28 21 -67 27 -85 6 -17 7 -42 4
-55 -4 -12 -3 -17 2 -11 9 13 26 -1 31 -26 4 -16 27 -32 39 -28 8 3 10 9 12
42 1 15 4 16 16 6 23 -19 18 -3 -6 19 -12 11 -19 27 -16 35 3 8 -1 17 -9 20
-9 3 -14 19 -14 43 0 28 3 34 10 23 5 -8 7 -24 4 -35 -4 -16 -3 -17 5 -5 6 8
11 11 11 5 0 -5 5 -3 10 6 7 11 4 28 -10 55 -10 22 -19 35 -20 29 0 -5 -5 -3
-10 5 -5 8 -10 39 -10 68 0 40 4 52 15 52 8 0 15 9 15 20 0 23 10 26 28 8 7
-7 12 -8 12 -2 0 6 -5 15 -11 21 -6 6 -9 23 -5 36 7 30 36 45 36 19 0 -10 5
-23 12 -30 9 -9 9 -21 0 -50 -14 -46 -16 -110 -3 -77 5 11 6 24 3 29 -3 5 5 7
16 4 20 -6 22 -2 22 40 0 93 23 118 45 52 16 -46 35 -51 35 -8 0 18 7 54 17
80 16 46 17 46 34 27 16 -19 17 -19 23 16 4 19 11 35 16 35 5 0 7 7 4 15 -8
19 13 20 32 1 11 -11 11 -16 1 -19 -7 -3 -6 -6 5 -6 9 -1 18 -6 20 -13 2 -6
14 -13 27 -15 14 -2 20 1 15 8 -3 6 -6 36 -5 67 1 60 31 120 60 118 8 -1 18
10 22 24 4 14 7 20 8 14 1 -7 16 2 35 20 59 54 68 59 115 60 25 1 53 7 62 14
9 8 56 32 105 54 49 22 102 51 118 64 44 38 76 50 131 53 64 2 105 10 105 21
0 4 7 11 16 14 20 8 23 19 -93 -404 -52 -190 -117 -426 -143 -525 -27 -99 -71
-261 -98 -360 -27 -99 -57 -216 -65 -260 -23 -117 -75 -477 -83 -572 l-7 -83
852 0 c468 0 851 3 851 8 0 24 -81 410 -124 592 -13 58 -34 182 -46 275 -31
255 -72 445 -151 710 -35 118 -160 416 -171 409 -4 -3 -5 3 -1 12 3 10 2 15
-3 12 -5 -4 -10 4 -10 15 -1 12 -5 39 -9 61 -8 38 -8 38 16 26 13 -7 30 -21
39 -32 13 -16 37 -20 165 -28 148 -10 242 -27 299 -55 16 -8 71 -22 122 -30
106 -17 141 -30 150 -57 3 -10 16 -25 28 -33 28 -19 138 -55 147 -49 4 2 10 0
14 -6 3 -5 17 -10 31 -10 14 0 33 -4 43 -9 10 -6 37 -12 62 -15 45 -6 57 -8
145 -26 28 -6 63 -9 77 -6 32 6 37 -6 38 -97 1 -71 2 -71 12 -29 10 42 27 58
27 25 0 -16 1 -16 17 -1 15 16 18 16 35 -4 10 -12 18 -27 18 -35 0 -7 4 -13
10 -13 13 0 36 -48 44 -93 6 -32 11 -38 27 -34 22 6 25 -3 7 -22 -8 -8 -8 -11
-2 -8 15 9 24 -46 11 -69 -7 -12 -6 -15 2 -10 7 5 11 -2 11 -18 0 -39 18 -76
33 -70 11 4 16 -13 21 -78 7 -80 31 -188 45 -198 11 -9 50 -113 57 -155 4 -22
10 -44 14 -50 14 -19 21 -65 10 -65 -6 0 -8 5 -5 10 3 6 2 10 -4 10 -5 0 -13
-5 -16 -10 -4 -6 -15 -8 -25 -5 -10 3 -21 1 -25 -5 -11 -18 -49 -29 -62 -18
-15 12 -53 -7 -53 -27 0 -22 4 -30 13 -27 4 1 7 -4 7 -11 0 -8 6 -14 13 -15
26 -4 53 -9 67 -15 8 -3 24 -7 35 -9 11 -2 23 -7 27 -13 4 -6 8 -2 8 8 0 10 4
16 9 12 6 -3 8 -14 6 -25 -5 -24 26 -45 43 -28 12 12 26 -114 19 -169 -2 -18
-1 -33 4 -33 19 0 15 -60 -9 -120 -3 -8 -6 -17 -7 -20 -11 -46 -17 -60 -24
-56 -4 3 -13 -6 -20 -20 -6 -14 -16 -22 -21 -19 -6 3 -10 -4 -10 -16 l0 -23
28 25 c15 14 35 31 45 39 17 12 17 12 6 -13 -7 -15 -49 -51 -96 -83 -45 -31
-83 -58 -83 -61 0 -5 5 -2 64 35 l39 24 -5 -31 c-3 -21 0 -31 9 -31 8 0 13 12
13 33 0 31 14 57 32 57 4 0 8 -20 8 -45 l0 -45 555 0 555 0 0 5120 0 5120
-3405 0 -3405 0 0 -5120z m3670 3940 l25 -8 -25 0 c-14 -1 -43 3 -65 7 l-40 9
40 0 c22 0 51 -4 65 -8z m-205 -80 c84 -35 264 -68 358 -65 39 1 77 -2 84 -7
7 -5 16 -7 21 -4 5 3 22 -6 38 -19 16 -14 34 -25 39 -25 6 0 23 -13 38 -30 24
-25 27 -35 23 -71 -3 -23 -9 -45 -14 -48 -12 -9 -30 -121 -20 -127 4 -3 6 -15
3 -27 -10 -40 -7 -80 8 -104 6 -9 1 -13 -13 -13 -12 0 -19 4 -16 9 3 4 -7 6
-22 4 -15 -3 -49 -6 -77 -8 -27 -1 -61 -6 -75 -9 -14 -4 -56 -10 -95 -13 -71
-6 -76 -9 -130 -75 -19 -23 -45 -107 -45 -146 0 -12 5 -11 25 8 16 15 25 19
25 10 0 -9 10 -5 27 11 20 17 23 18 10 3 -20 -24 -25 -56 -5 -36 7 7 19 12 28
12 9 0 25 9 35 20 24 26 32 25 39 -4 3 -13 9 -32 13 -43 7 -17 6 -17 -11 0
-19 18 -62 24 -51 6 4 -5 12 -8 18 -6 7 3 21 -3 32 -13 24 -21 95 -36 95 -20
0 5 17 10 38 10 27 0 33 -3 22 -10 -13 -9 -13 -10 0 -10 19 0 114 48 137 70
20 18 43 16 43 -5 0 -8 11 -25 23 -37 22 -22 24 -32 24 -126 0 -61 -4 -99 -10
-95 -5 3 -6 -3 -2 -16 9 -31 -12 -87 -41 -105 -13 -9 -24 -22 -24 -29 0 -6
-11 -34 -25 -60 -18 -37 -26 -71 -30 -145 -4 -53 -8 -106 -9 -117 -4 -35 -29
-94 -38 -89 -4 3 -8 -4 -8 -15 0 -11 -5 -23 -10 -26 -6 -4 -9 -1 -8 6 2 6 -3
14 -10 16 -9 4 -11 -3 -7 -24 4 -20 3 -24 -3 -13 -13 20 -9 96 4 93 7 -1 9 8
6 24 -4 21 -2 25 11 20 11 -4 14 -2 10 9 -3 7 -9 14 -14 14 -5 0 -9 4 -9 10 0
5 7 6 17 3 11 -4 14 -3 9 5 -4 7 -14 12 -23 12 -12 0 -13 3 -4 14 9 10 8 16
-4 26 -8 7 -12 16 -9 21 3 5 1 9 -5 9 -5 0 -17 3 -27 7 -14 5 -16 2 -12 -20 6
-30 -8 -39 -36 -25 -15 8 -16 12 -5 20 11 7 11 11 1 15 -6 2 -9 9 -6 15 4 6
-1 8 -12 4 -11 -3 -26 -1 -33 4 -9 5 -22 5 -33 -1 -13 -7 -23 -4 -38 11 -20
20 -28 56 -10 45 6 -4 10 6 10 24 0 17 7 48 16 70 12 30 13 44 4 60 -14 27
-28 27 -32 -1 -2 -13 -11 -24 -21 -26 -19 -4 -68 -48 -60 -55 2 -3 -14 -8 -36
-12 -22 -4 -45 -13 -52 -21 -6 -8 -27 -14 -46 -14 -35 0 -93 24 -93 39 0 5
-10 21 -22 37 -28 35 -33 84 -10 102 15 11 15 14 2 22 -10 7 -11 10 -2 10 6 0
12 8 12 18 0 10 4 22 9 27 5 6 11 39 14 75 5 69 8 88 19 106 4 6 3 39 -3 74
-7 47 -7 71 2 93 12 28 11 32 -16 53 -16 12 -32 21 -37 18 -4 -3 -8 -1 -8 3 0
28 -178 76 -274 75 -22 -1 -52 6 -67 14 -19 9 -30 10 -34 3 -4 -5 -12 -8 -18
-6 -7 2 -18 -3 -25 -12 -11 -14 -12 -13 -3 5 6 12 7 24 4 28 -7 7 17 116 29
133 5 6 16 9 24 6 20 -8 49 17 32 28 -7 4 -18 3 -25 -3 -10 -8 -12 -7 -7 6 3
9 2 16 -4 16 -6 0 -9 11 -7 25 1 14 -2 25 -7 25 -5 0 -6 5 -3 10 3 6 -1 10 -9
10 -10 0 -16 9 -17 23 -4 79 18 143 54 156 13 5 31 20 40 34 20 31 46 38 187
46 131 7 226 4 255 -9z m885 -668 c0 -11 -9 -29 -20 -42 -11 -13 -20 -27 -20
-33 0 -5 -7 -4 -15 3 -13 11 -12 17 7 51 23 41 48 52 48 21z m-1195 -42 c3 -5
1 -10 -4 -10 -6 0 -11 5 -11 10 0 6 2 10 4 10 3 0 8 -4 11 -10z m675 -10 c0
-5 -4 -10 -10 -10 -5 0 -10 5 -10 10 0 6 5 10 10 10 6 0 10 -4 10 -10z m-590
-22 c25 -27 25 -35 3 -41 -10 -3 1 -5 25 -6 30 -1 42 -5 42 -16 0 -8 6 -12 14
-9 8 3 12 15 10 27 -4 21 -4 21 5 2 14 -30 13 -62 -4 -79 -9 -8 -14 -19 -13
-23 3 -13 -24 -63 -35 -63 -5 0 -7 -10 -4 -22 8 -28 -16 -82 -51 -117 -30 -30
-56 -97 -44 -115 9 -16 9 -126 0 -126 -5 0 -6 -11 -2 -25 4 -15 2 -25 -5 -25
-6 0 -11 7 -11 15 0 8 -4 16 -10 16 -5 1 -16 2 -22 3 -7 1 -19 -2 -25 -7 -7
-5 -13 -6 -13 -2 0 4 -7 2 -15 -5 -8 -7 -12 -17 -8 -23 3 -6 1 -7 -5 -3 -21
13 -14 66 11 87 16 13 18 18 7 19 -21 0 -68 -39 -119 -98 l-29 -33 2 48 c1 26
5 54 10 62 6 10 5 12 -2 7 -8 -5 -11 3 -8 25 4 30 -10 77 -25 89 -15 11 -50
90 -45 99 4 5 -2 12 -12 15 -14 5 -17 14 -14 35 2 17 -2 34 -13 44 -13 13 -14
23 -6 52 7 26 6 35 -2 35 -9 0 -9 2 -1 8 6 4 10 18 9 32 -6 62 32 74 142 45
69 -18 145 -19 161 -3 15 15 16 31 0 22 -7 -5 -8 -3 -4 5 5 7 21 11 41 8 20
-3 32 0 32 7 -1 27 3 56 8 56 2 0 13 -10 25 -22z m1173 -178 l-28 -95 0 101
c0 76 3 100 11 93 14 -11 24 10 24 50 0 49 15 44 18 -6 1 -30 -8 -84 -25 -143z
m-1858 89 c5 -52 4 -52 -5 -14 -21 87 -22 90 -10 79 6 -6 13 -35 15 -65z
m1345 56 c-7 -9 -15 -13 -17 -11 -7 7 7 26 19 26 6 0 6 -6 -2 -15z m-46 -24
c7 -11 -50 -20 -66 -10 -7 4 0 9 18 12 16 2 32 5 36 6 4 0 9 -3 12 -8z m519
-133 c-1 -84 -26 -156 -53 -150 -12 3 -12 1 -3 -9 14 -14 40 2 54 36 6 13 7 7
2 -20 -11 -69 -68 -184 -98 -195 -36 -14 -43 -13 -54 9 -17 31 41 191 69 191
11 0 19 24 26 85 3 27 7 53 10 56 2 4 0 10 -5 13 -5 4 -7 21 -4 40 3 20 1 36
-6 40 -8 5 -4 14 11 26 23 19 23 19 37 -13 8 -18 14 -65 14 -109z m-1751 -30
c2 -51 2 -95 0 -97 -1 -3 -10 3 -19 12 -18 18 -29 110 -19 152 4 14 13 25 20
25 11 0 15 -21 18 -92z m1670 -54 c-22 -16 -25 -12 -17 27 l7 33 13 -24 c11
-21 11 -26 -3 -36z m-1622 -106 c0 -5 -4 -8 -10 -8 -5 0 -10 10 -10 23 0 18 2
19 10 7 5 -8 10 -18 10 -22z m990 -261 c0 -6 -7 -2 -16 9 -13 15 -15 16 -10 2
3 -12 1 -15 -10 -11 -17 6 -18 20 -1 26 14 5 37 -11 37 -26z m-550 2 c0 -5 -4
-9 -8 -9 -5 0 -9 7 -9 15 0 8 4 12 9 9 4 -3 8 -9 8 -15z m685 -27 c-3 -3 -14
3 -25 13 -18 16 -25 14 -21 -7 0 -5 -3 -8 -9 -8 -13 0 -13 13 1 27 9 9 18 8
36 -4 13 -9 21 -18 18 -21z m-444 -10 c22 7 33 7 44 -2 10 -9 33 -10 73 -6 96
12 142 13 142 3 0 -5 6 -7 14 -4 9 4 21 -5 31 -19 9 -14 20 -22 24 -20 12 8
61 -17 61 -31 0 -11 -23 -7 -105 18 -40 11 -378 14 -397 3 -4 -3 -8 -1 -8 3 0
10 40 36 60 39 8 2 17 9 19 16 3 9 5 10 8 1 3 -8 12 -9 34 -1z m-394 -16 c-3
-7 -2 -17 2 -22 4 -5 14 -28 21 -51 10 -33 16 -40 26 -32 15 12 30 -7 25 -35
-2 -14 2 -17 13 -13 11 5 16 1 16 -13 0 -13 -5 -17 -14 -14 -9 3 -17 -3 -21
-16 -7 -23 -24 -23 -36 1 -45 82 -64 167 -44 199 9 15 18 12 12 -4z m618 -110
c45 -16 53 -39 15 -44 -15 -2 -30 -13 -36 -27 -10 -21 -9 -25 7 -30 23 -7 24
-23 4 -49 -11 -14 -15 -16 -15 -5 0 12 -2 12 -9 -1 -6 -8 -7 -18 -4 -23 3 -5
-4 -6 -15 -3 -12 4 -30 2 -42 -4 -17 -9 -20 -8 -21 7 0 11 -3 13 -6 6 -6 -15
-53 -18 -53 -3 0 6 -3 9 -7 9 -26 -4 -35 3 -31 25 3 17 1 23 -8 19 -8 -3 -12
3 -11 15 1 16 8 19 39 17 l39 -3 -26 24 c-14 13 -31 21 -38 18 -7 -2 -21 2
-32 10 -16 11 -17 17 -7 29 9 10 36 14 103 15 50 0 93 3 97 6 8 8 11 8 57 -8z
m-501 -8 c-5 -8 -1 -8 10 1 15 13 19 13 27 0 5 -8 9 -10 9 -4 0 24 23 -17 26
-47 4 -54 14 -93 25 -96 5 -2 9 -9 9 -15 0 -7 6 -24 14 -39 12 -23 12 -26 0
-21 -8 3 -14 14 -14 25 0 18 -2 19 -17 7 -9 -8 -14 -9 -11 -4 4 6 3 17 -3 25
-7 12 -9 12 -9 1 0 -10 -3 -11 -13 -2 -8 6 -17 7 -22 3 -4 -4 -2 4 5 18 7 14
9 22 5 18 -5 -4 -14 -3 -21 3 -8 6 -21 9 -29 5 -9 -3 -13 -2 -10 4 3 5 1 19
-5 30 -8 16 -8 20 2 18 9 -2 13 9 14 32 2 45 3 50 10 50 3 0 2 -6 -2 -12z
m763 -4 c-3 -3 1 -20 8 -37 14 -34 3 -73 -17 -61 -7 4 -8 3 -4 -4 4 -7 2 -12
-5 -12 -10 0 -10 -3 -1 -12 7 -7 12 -19 12 -27 0 -11 -5 -10 -22 5 l-21 19 6
-33 c6 -28 3 -34 -17 -41 -27 -11 -28 -41 -1 -71 21 -24 14 -27 -10 -4 -22 22
-33 9 -12 -14 21 -23 21 -32 2 -32 -8 0 -15 6 -15 13 -1 6 -9 1 -20 -12 -11
-12 -17 -28 -14 -33 4 -6 10 -5 15 3 4 7 12 10 16 5 4 -4 0 -13 -9 -20 -10 -7
-15 -15 -13 -18 3 -3 -2 -11 -12 -19 -11 -9 -14 -10 -9 -1 4 6 2 12 -3 12 -6
0 -11 -5 -11 -11 0 -5 -5 -7 -10 -4 -6 4 -8 10 -6 14 3 4 1 13 -4 20 -6 10
-10 8 -15 -8 -6 -19 -9 -20 -23 -9 -13 11 -15 11 -10 -4 4 -10 1 -19 -9 -22
-14 -6 -14 -8 3 -22 14 -12 15 -14 3 -11 -20 7 -42 -7 -45 -28 -3 -20 -14 -33
-14 -17 0 6 -7 9 -15 6 -8 -4 -15 -1 -15 6 0 6 -6 10 -12 8 -17 -6 -38 16 -39
39 0 16 -1 16 -8 -2 -5 -11 -7 -23 -4 -27 2 -5 -3 -8 -12 -8 -10 0 -14 5 -10
13 4 6 0 4 -8 -5 -8 -10 -17 -15 -20 -11 -4 3 -7 -1 -7 -10 0 -9 -5 -17 -11
-17 -11 0 -8 25 7 64 5 12 0 14 -22 10 -33 -6 -45 -20 -36 -43 3 -9 2 -13 -2
-9 -14 12 -14 63 0 85 8 12 14 30 14 39 0 14 -4 12 -21 -7 l-22 -24 6 23 c5
20 3 21 -10 10 -14 -11 -15 -10 -8 12 7 22 6 23 -8 11 -9 -7 -15 -17 -12 -21
3 -4 -7 -16 -22 -25 -23 -16 -25 -16 -20 -1 4 9 2 16 -3 16 -5 0 -5 13 0 30 8
29 -3 44 -13 18 -3 -7 -4 -3 -4 10 1 21 5 23 42 18 22 -3 48 -5 59 -5 13 -1
17 -6 13 -21 -3 -11 -1 -18 4 -14 5 3 9 13 9 22 0 15 2 15 10 2 6 -10 10 -11
10 -2 0 6 7 12 15 12 9 0 12 -6 9 -15 -4 -8 -1 -15 5 -15 6 0 11 7 11 16 0 13
3 14 14 4 15 -12 10 -44 -5 -34 -5 3 -9 -2 -9 -11 0 -11 5 -15 14 -12 8 3 16
1 19 -6 2 -6 6 -3 10 7 4 10 3 15 -3 11 -6 -3 -10 0 -10 8 0 23 33 46 63 43
15 -2 30 1 33 5 3 5 21 9 40 9 19 0 34 4 34 10 0 5 10 9 23 7 13 -1 21 3 20
10 -2 7 4 10 12 7 25 -10 17 13 -12 36 -25 19 -26 21 -6 17 15 -3 20 -1 16 8
-2 8 5 18 16 25 12 6 21 18 21 26 0 9 11 25 25 36 24 18 36 46 15 33 -23 -14
-7 10 27 41 21 20 47 34 62 34 13 0 22 -3 18 -6z m43 -23 c5 -11 10 -32 10
-48 0 -26 -2 -24 -20 16 -23 50 -23 51 -10 51 5 0 14 -9 20 -19z m-9 -198 c13
-16 12 -17 -3 -4 -10 7 -18 15 -18 17 0 8 8 3 21 -13z m-61 -14 c0 -6 -4 -7
-10 -4 -5 3 -10 1 -10 -5 0 -6 -4 -8 -10 -5 -16 10 -11 21 10 22 11 1 20 -3
20 -8z m-610 -68 c0 -10 -6 -21 -14 -24 -11 -4 -11 -1 -2 19 13 29 16 30 16 5z
m168 -172 c-3 -8 -7 -3 -11 10 -4 17 -3 21 5 13 5 -5 8 -16 6 -23z m227 2 c-3
-6 -11 -8 -17 -5 -6 4 -5 9 3 15 16 10 23 4 14 -10z m631 -125 c38 -13 92 -35
119 -49 47 -23 53 -30 83 -105 44 -105 74 -132 202 -182 117 -46 245 -104 423
-191 81 -39 137 -60 175 -65 31 -4 75 -13 97 -21 22 -8 90 -28 150 -44 165
-45 272 -126 377 -288 27 -42 63 -90 80 -108 34 -35 72 -151 57 -174 -5 -8 -9
-21 -9 -29 0 -11 2 -12 8 -3 4 7 12 9 19 5 11 -7 83 -174 83 -194 0 -6 16 -30
35 -53 51 -63 59 -85 46 -131 -9 -34 -8 -37 3 -21 13 17 15 16 34 -10 59 -84
63 -116 27 -205 -26 -65 -34 -110 -13 -73 11 19 11 19 19 0 4 -11 8 -39 8 -63
1 -24 5 -41 9 -38 11 6 67 -187 92 -319 12 -60 26 -175 31 -254 11 -147 8
-191 -33 -516 -6 -49 -10 -107 -9 -128 1 -20 -13 -90 -30 -155 -26 -96 -32
-133 -30 -206 2 -93 0 -101 -65 -266 -18 -47 -40 -110 -50 -140 -9 -30 -25
-80 -35 -111 -22 -65 -25 -99 -7 -81 33 33 28 -5 -11 -90 -11 -26 -26 -50 -31
-53 -6 -4 -8 -10 -5 -15 3 -5 1 -11 -5 -15 -5 -3 -10 -19 -10 -35 0 -16 -5
-32 -10 -35 -6 -4 -8 -14 -5 -24 8 -26 -30 -96 -60 -109 -38 -18 -92 -15 -99
4 -3 9 3 32 15 51 12 19 18 37 15 40 -4 4 -44 2 -89 -5 -46 -7 -101 -12 -123
-12 -59 0 -150 31 -243 84 -46 26 -100 54 -121 61 -36 13 -37 13 -32 -8 3 -12
18 -31 33 -44 27 -23 47 -78 25 -70 -6 2 -20 1 -31 -3 -11 -4 -25 -3 -32 2 -6
5 -31 11 -55 13 -24 2 -77 10 -118 19 -45 9 -89 12 -110 7 -30 -6 -23 -8 45
-14 44 -3 81 -9 82 -14 11 -29 20 -32 76 -24 32 4 54 4 49 -1 -4 -4 -38 -12
-74 -16 -59 -7 -65 -7 -60 10 3 15 -1 17 -29 13 -95 -13 -144 -8 -194 22 -66
38 -85 45 -85 30 0 -8 -4 -6 -10 3 -8 11 -9 9 -8 -13 1 -15 8 -27 15 -27 7 0
13 -4 13 -10 0 -5 15 -10 33 -11 24 0 27 -2 13 -8 -15 -6 -10 -10 25 -21 24
-8 48 -14 53 -12 5 2 24 -4 43 -13 50 -24 30 -36 -63 -37 -50 -1 -70 -4 -54
-9 15 -4 1 -6 -35 -4 -33 1 -59 7 -58 12 1 5 -7 9 -17 9 -10 0 -17 -4 -14 -7
8 -14 -17 -21 -31 -9 -8 7 -15 8 -15 3 0 -5 -6 -10 -12 -11 -66 -5 -108 -3
-126 7 -27 14 -92 14 -92 0 0 -7 -11 -9 -30 -6 -23 5 -28 3 -23 -8 3 -9 -1
-15 -11 -15 -11 0 -23 26 -43 90 -15 50 -30 85 -33 79 -5 -7 -20 -2 -44 15
-21 14 -47 28 -59 32 -12 4 -24 10 -27 14 -8 11 -50 22 -50 13 0 -5 15 -17 33
-28 36 -21 177 -160 177 -175 0 -19 -46 -10 -87 18 -62 40 -231 180 -235 194
-5 15 -28 1 -28 -18 0 -25 98 -114 154 -140 28 -13 62 -37 74 -54 13 -17 28
-28 34 -24 7 4 8 3 4 -5 -4 -7 2 -15 16 -20 16 -7 18 -10 6 -10 -19 -1 -33
-17 -15 -18 7 -1 37 -6 67 -12 30 -5 73 -13 94 -16 22 -3 41 -7 42 -8 1 -1
-120 -2 -269 -2 l-271 0 -18 48 c-18 47 -15 61 6 31 6 -8 18 -16 26 -18 8 -2
23 -6 33 -11 9 -4 30 -5 47 -3 16 2 27 1 24 -4 -3 -4 0 -8 5 -8 6 0 11 6 11
14 0 13 -86 63 -148 87 -20 8 -23 7 -17 -11 3 -11 2 -20 -4 -20 -15 0 -111
360 -111 419 0 23 12 36 83 83 135 91 268 167 311 179 23 6 59 17 81 25 23 8
56 14 74 14 20 0 73 19 125 44 50 24 101 47 114 51 12 3 20 11 17 16 -4 5 12
9 36 9 46 0 115 28 254 104 50 27 105 57 124 67 19 10 74 47 123 81 l88 62 0
47 c0 26 -14 101 -30 166 -33 126 -117 391 -130 408 -5 6 -10 21 -12 34 -3 28
-28 41 -28 16 0 -14 -7 -16 -39 -10 -35 6 -41 4 -56 -19 -17 -25 -44 -38 -29
-14 5 8 0 9 -17 3 -13 -4 -42 -10 -64 -12 -22 -3 -44 -12 -48 -19 -4 -8 -14
-14 -21 -14 -8 0 -46 -13 -84 -30 -87 -37 -106 -38 -96 -8 4 15 -12 5 -59 -37
-66 -57 -103 -107 -55 -71 25 18 39 25 191 88 75 32 100 39 106 29 5 -7 28
-14 52 -16 l44 -4 -38 8 c-37 8 -71 29 -52 33 6 0 33 2 60 3 28 1 61 5 74 10
21 7 22 6 12 -12 -10 -20 -6 -33 11 -33 5 0 7 4 4 9 -7 11 34 2 52 -12 22 -17
13 -29 -10 -13 -29 20 -35 20 -33 -2 2 -27 14 -42 35 -42 11 0 35 -13 53 -30
26 -23 33 -36 30 -54 -3 -14 -8 -25 -12 -24 -20 2 -30 -4 -25 -17 4 -9 0 -15
-7 -15 -8 0 -6 -5 6 -12 11 -6 24 -17 28 -24 4 -7 32 -30 62 -50 30 -20 53
-40 50 -44 -7 -11 -45 0 -45 13 0 6 -3 7 -7 4 -3 -4 -13 -1 -21 6 -11 8 -14 8
-9 0 4 -6 -5 -21 -20 -34 -18 -14 -24 -23 -15 -26 6 -3 10 -9 6 -14 -3 -5 -11
-6 -17 -2 -32 20 -45 11 -53 -33 -3 -18 -1 -23 7 -18 8 4 9 3 5 -5 -4 -6 -11
-9 -16 -6 -12 7 -19 -20 -9 -36 12 -19 11 -39 -1 -39 -5 0 -10 8 -11 18 0 15
-1 14 -8 -3 -8 -19 -8 -19 -19 0 -6 11 -12 15 -12 9 0 -6 9 -22 20 -36 14 -19
16 -28 8 -36 -9 -9 -7 -12 9 -12 11 0 24 -7 27 -16 8 -20 8 -19 -23 -29 -18
-6 -23 -4 -19 7 4 9 -1 14 -13 14 -12 0 -15 -4 -9 -10 18 -18 11 -27 -16 -22
-14 3 -32 13 -40 23 -13 17 -14 17 -7 -2 6 -20 6 -20 -16 0 -16 13 -24 16 -29
8 -10 -16 -37 1 -37 23 0 10 -6 19 -14 22 -9 3 -11 0 -6 -8 6 -9 3 -9 -15 0
-17 9 -21 9 -15 0 5 -8 2 -10 -11 -6 -25 8 -48 -8 -41 -28 5 -14 0 -15 -33
-11 -25 3 -40 1 -40 -6 0 -5 -5 -7 -10 -4 -12 7 -42 -20 -32 -29 3 -4 -2 -4
-13 0 -15 6 -17 4 -12 -9 5 -15 3 -16 -13 -7 -10 5 -32 10 -49 10 -17 0 -31 4
-31 8 0 5 -22 9 -48 9 -27 1 -63 8 -81 18 -21 10 -30 12 -26 4 6 -9 0 -11 -22
-6 -17 3 -34 3 -37 0 -16 -16 -43 -10 -63 14 -13 14 -23 21 -23 14 0 -7 -6 -9
-12 -6 -7 4 -1 -5 14 -18 15 -14 33 -27 40 -30 8 -4 9 -8 3 -14 -5 -4 -11 -13
-12 -20 -3 -13 22 -7 44 10 9 6 22 3 40 -9 31 -21 73 -28 73 -13 0 6 4 8 10 4
5 -3 7 -12 3 -20 -3 -8 -1 -15 5 -15 6 0 12 5 14 11 2 7 9 5 17 -5 12 -14 10
-16 -11 -16 -13 0 -29 -5 -36 -12 -8 -8 -15 -8 -26 1 -8 6 -16 8 -18 3 -6 -17
-115 -21 -135 -6 -24 18 -39 18 -23 -1 12 -14 3 -15 -35 -4 -14 4 -55 -11 -55
-20 0 -10 -46 -8 -56 2 -4 4 -2 7 5 7 7 0 9 5 6 10 -4 6 -11 8 -16 4 -6 -3
-13 3 -16 15 -7 28 -23 27 -16 -1 5 -19 3 -21 -8 -10 -15 14 -33 16 -24 3 6
-10 -27 -7 -45 4 -6 3 -10 1 -10 -4 0 -20 -19 -11 -34 17 l-15 27 6 -33 c5
-28 3 -31 -12 -25 -12 4 -16 3 -11 -5 8 -13 -4 -21 -41 -27 -15 -2 -41 -7 -57
-11 -27 -6 -29 -5 -24 20 3 14 2 26 -3 26 -8 0 -13 -32 -34 -272 -9 -92 -19
-176 -23 -185 -4 -10 -16 -19 -27 -20 -79 -8 -163 -27 -226 -52 -81 -32 -139
-46 -202 -50 -9 -1 -22 -11 -28 -23 -8 -18 -20 -24 -55 -26 -25 -2 -57 -8 -72
-13 -46 -18 -204 -49 -215 -42 -6 3 -7 1 -3 -5 5 -8 -6 -12 -36 -13 -24 -1
-83 -3 -133 -5 -366 -16 -544 -20 -588 -13 -20 4 -40 2 -43 -2 -3 -5 -9 -7
-14 -4 -5 3 -12 1 -15 -5 -4 -7 -40 -9 -98 -7 -51 2 -126 0 -167 -5 -152 -18
-188 -17 -249 12 -57 28 -82 50 -89 79 -3 17 -4 21 -2 66 1 39 -3 60 -17 76
-9 11 -6 14 15 13 15 0 34 -3 42 -6 33 -13 60 -16 60 -6 0 6 -36 46 -80 90
-131 128 -179 219 -224 420 -16 75 -28 161 -31 243 -3 76 -12 143 -21 168 -34
92 -37 127 -25 267 7 74 12 140 11 145 -5 24 2 25 27 6 14 -12 28 -19 31 -16
3 2 -14 35 -36 72 -54 89 -71 139 -82 244 -12 122 22 379 50 379 6 0 9 64 9
158 -1 165 7 232 43 322 28 73 35 79 46 39 9 -32 10 -29 12 31 1 36 2 70 1 77
-2 17 57 174 72 192 8 9 24 48 37 88 31 97 34 101 60 85 l21 -13 -21 40 c-26
52 -25 65 6 90 14 11 38 38 54 59 47 66 149 169 197 201 25 17 81 42 125 57
68 22 83 32 100 61 28 47 59 60 163 68 83 6 96 10 175 55 148 84 253 136 310
155 38 12 73 35 112 71 32 29 91 78 133 109 41 31 93 77 115 102 22 25 43 43
47 39 4 -3 1 -88 -6 -189 -26 -354 -28 -430 -13 -460 7 -16 11 -35 8 -42 -5
-15 99 -344 114 -359 5 -5 13 -6 17 -2 4 4 3 10 -2 14 -6 4 -11 18 -12 32 -1
14 -3 34 -3 45 -1 11 1 38 4 60 4 33 4 35 -3 10 -9 -30 -15 -19 -11 23 1 12
-3 22 -9 22 -6 0 -9 13 -7 30 2 16 -1 27 -5 24 -5 -3 -9 2 -9 11 0 11 5 15 15
12 8 -4 17 -1 21 5 5 7 2 8 -6 3 -10 -6 -11 -1 -6 21 6 29 6 29 -7 5 -12 -20
-15 -21 -20 -6 -4 9 0 23 8 32 8 8 13 19 10 24 -8 12 -25 11 -25 -2 0 -5 5 -7
12 -3 7 5 8 3 3 -5 -10 -18 -27 2 -19 22 3 9 10 14 15 11 5 -3 9 0 9 6 0 6 5
8 10 5 6 -4 8 -12 4 -18 -3 -7 1 -4 9 5 8 10 17 15 20 11 4 -3 7 2 7 11 0 10
-5 16 -12 13 -36 -13 -58 -18 -58 -12 0 11 27 34 34 30 3 -3 4 -2 1 1 -2 4 0
14 5 24 6 12 2 27 -16 53 -43 64 -18 40 33 -30 40 -57 49 -64 51 -45 2 12 8
22 13 22 6 0 8 -4 5 -8 -3 -5 1 -9 9 -9 20 0 7 17 -22 28 -13 5 -22 13 -19 18
3 5 -11 23 -32 41 -20 18 -29 30 -19 27 9 -4 17 -2 17 2 0 5 -6 11 -12 14 -19
6 -7 15 27 19 24 2 30 -1 29 -14 -1 -10 4 -18 12 -18 8 0 14 -4 14 -10 0 -5 6
-10 14 -10 7 0 20 -8 27 -17 12 -16 12 -17 -1 -7 -9 7 -23 8 -35 3 -20 -8 -20
-8 1 -14 15 -5 20 -12 17 -26 -3 -10 0 -19 6 -19 7 0 10 -10 7 -25 -4 -22 -2
-25 15 -20 25 8 24 3 -3 -21 -12 -10 -18 -14 -15 -7 9 15 -34 46 -46 34 -5 -5
-5 -17 0 -27 5 -11 8 -29 8 -41 -1 -12 1 -20 6 -18 4 3 17 -10 28 -29 12 -18
29 -40 39 -47 16 -13 16 -12 1 6 -28 35 -35 52 -12 33 11 -10 25 -18 31 -18
19 0 24 -20 10 -38 -12 -15 -11 -16 5 -3 15 12 17 11 18 -5 1 -18 2 -18 6 -1
5 18 6 18 24 1 11 -10 19 -12 19 -6 0 7 5 12 10 12 6 0 10 -7 10 -15 0 -23 20
-18 29 7 5 15 10 18 15 9 5 -7 1 -20 -8 -30 -9 -10 -16 -22 -16 -27 0 -5 5 -2
10 6 9 13 11 13 19 1 7 -11 10 -10 13 8 1 12 7 20 13 19 5 -2 9 -7 7 -11 -1
-5 2 -5 8 -2 13 8 -64 85 -85 85 -10 0 -14 9 -11 30 2 22 -2 35 -17 45 -19 13
-17 20 6 16 4 0 7 4 7 10 0 6 -9 8 -21 4 -18 -6 -19 -5 -10 13 6 11 14 22 18
24 5 3 3 4 -3 2 -6 -1 -11 4 -11 12 0 7 4 11 9 8 4 -3 8 2 8 10 0 19 -20 32
-21 14 0 -7 -7 1 -14 17 -8 17 -14 23 -15 15 0 -12 -3 -11 -11 3 -6 9 -16 15
-22 11 -7 -3 -4 1 6 9 9 8 17 20 17 28 0 12 -2 12 -9 0 -5 -8 -16 -11 -24 -8
-8 3 -20 0 -26 -6 -12 -12 -14 -7 -5 17 4 10 18 16 36 16 l29 0 -21 30 c-12
16 -18 35 -14 42 5 8 10 6 15 -8 7 -17 8 -16 8 6 1 20 3 22 11 10 5 -8 10 -10
10 -4 0 6 -8 18 -17 25 -14 12 -16 12 -9 -1 4 -8 1 -7 -8 4 -8 10 -19 15 -25
11 -7 -3 -8 0 -5 9 6 17 29 12 58 -13 18 -15 19 -15 13 2 -4 9 -2 17 4 17 7 0
5 9 -4 23 -14 22 -14 23 6 21 12 -1 26 -3 30 -3 5 -1 5 -5 2 -11 -3 -6 1 -7 9
-4 9 3 16 1 16 -5 0 -6 7 -11 15 -11 9 0 18 -7 21 -15 4 -8 11 -15 17 -15 7 0
7 4 -1 12 -7 7 -12 16 -12 21 0 5 7 2 15 -7 8 -8 15 -19 15 -24 0 -18 28 -21
47 -6 17 14 16 15 -11 9 -26 -6 -28 -5 -16 10 12 14 12 18 -1 26 -8 5 -9 9 -4
9 6 0 17 -6 24 -12 11 -10 14 -10 18 0 3 6 11 12 19 12 9 0 12 -5 8 -12 -5 -7
-3 -8 6 -3 10 6 12 4 7 -8 -4 -10 -2 -14 7 -11 15 6 17 34 2 34 -5 0 -4 6 3
13 10 8 15 9 18 1 2 -6 15 -9 28 -6 14 2 22 8 19 13 -3 5 1 9 8 10 7 0 21 2
30 4 10 2 20 -1 24 -6 8 -14 24 -11 19 4 -6 16 42 39 52 25 4 -7 1 -8 -7 -3
-9 5 -11 4 -6 -3 10 -16 26 -15 26 2 0 8 15 17 36 20 22 5 34 12 31 19 -2 7 2
18 9 25 11 10 14 10 14 -2 0 -7 6 -16 13 -19 8 -3 13 4 13 19 0 15 -6 24 -15
24 -23 0 18 27 49 33 24 4 24 4 -3 6 -16 0 -26 5 -22 11 4 6 11 7 17 4 6 -4 8
-2 4 4 -3 6 -2 13 4 17 5 3 10 1 10 -4 0 -6 7 -11 15 -11 18 0 16 20 -5 37
-13 11 -12 12 4 6 13 -4 17 -3 12 5 -3 6 -2 13 4 17 5 3 10 1 10 -4 0 -6 10
-11 23 -11 21 0 21 1 -6 19 -26 17 -27 19 -8 24 11 2 23 0 26 -7 3 -6 3 -1 1
11 -3 17 0 21 18 17 15 -2 23 1 23 11 0 8 -5 15 -10 15 -14 0 0 13 16 16 9 1
11 -9 9 -32 -2 -19 -8 -31 -13 -28 -5 3 -9 1 -9 -4 0 -5 16 -9 35 -10 20 -1
40 -4 45 -7 6 -4 11 2 11 12 1 17 2 17 6 1 2 -10 9 -18 15 -18 6 0 6 -6 -2
-15 -7 -8 -9 -15 -4 -15 5 0 0 -7 -10 -15 -23 -17 -14 -20 15 -4 11 5 16 15
13 21 -5 7 -2 8 5 4 7 -5 10 -14 8 -20 -3 -7 -1 -19 4 -27 7 -11 9 -11 9 -1 0
7 5 10 10 7 6 -3 10 1 10 9 0 9 4 16 8 16 4 0 7 -24 6 -52 -2 -38 0 -47 6 -32
5 12 13 25 19 28 7 5 8 1 4 -10 -4 -12 -3 -15 5 -10 8 5 12 -5 13 -31 2 -83
-4 -110 -37 -166 -18 -32 -29 -55 -24 -52 15 9 12 -7 -6 -35 -11 -18 -8 -16
10 5 14 17 24 35 22 42 -3 6 11 35 29 65 19 29 35 50 35 46 0 -4 -14 -29 -30
-55 -30 -46 -30 -48 -10 -51 17 -3 19 -6 9 -18 -6 -7 -15 -11 -20 -8 -5 3 -6
-8 -3 -24 6 -30 -49 -227 -67 -237 -5 -4 -9 -19 -9 -35 0 -16 -6 -35 -14 -43
-11 -11 -12 -17 -3 -27 9 -10 9 -11 0 -6 -11 6 -28 -41 -26 -76 0 -10 -4 -15
-8 -12 -5 3 -9 -6 -9 -20 0 -14 -4 -28 -10 -31 -5 -3 -10 -16 -10 -29 0 -12
-3 -26 -7 -29 -3 -4 -7 -19 -8 -34 -1 -16 -5 -37 -10 -47 -6 -14 -5 -17 3 -12
8 5 10 2 6 -8 -3 -9 -9 -14 -13 -12 -3 2 -7 -8 -7 -22 -1 -15 -2 -31 -4 -37
-1 -5 -2 -21 -1 -35 1 -25 14 0 102 203 16 37 42 97 59 135 16 37 31 74 32 82
2 8 6 17 9 20 11 8 100 192 105 213 2 11 10 27 18 36 52 60 91 193 91 313 0
54 3 98 8 98 4 0 7 11 7 25 0 24 -3 25 -53 25 -33 0 -67 7 -92 20 -22 11 -45
20 -52 20 -16 0 -20 8 -28 53 -4 21 -3 37 2 37 5 0 41 -11 79 -24z m-226 -28
c0 -5 -6 -8 -14 -8 -8 0 -13 8 -11 18 2 9 4 19 4 22 2 7 21 -23 21 -32z m-14
-37 c0 -11 -5 -17 -13 -14 -17 6 -17 20 0 26 6 3 12 6 12 6 1 1 1 -7 1 -18z
m344 -121 l25 -8 -25 0 c-14 0 -34 3 -45 8 l-20 9 20 -1 c11 0 31 -4 45 -8z
m-60 -110 c0 -5 7 -10 15 -10 33 0 41 -55 20 -132 -2 -5 -3 -16 -4 -26 0 -10
-7 -19 -15 -19 -10 0 -12 8 -9 26 7 34 7 39 -1 91 -3 25 -11 47 -16 48 -13 5
-13 32 0 32 6 0 10 -4 10 -10z m-1070 -96 c0 -8 -4 -12 -10 -9 -5 3 -10 10
-10 16 0 5 5 9 10 9 6 0 10 -7 10 -16z m1081 -127 c-10 -9 -11 -8 -5 6 3 10 9
15 12 12 3 -3 0 -11 -7 -18z m-1334 -99 c-3 -8 -6 -5 -6 6 -1 11 2 17 5 13 3
-3 4 -12 1 -19z m83 7 c7 -9 8 -15 2 -15 -5 0 -12 7 -16 15 -3 8 -4 15 -2 15
2 0 9 -7 16 -15z m136 -135 c4 -17 11 -27 17 -23 6 3 7 1 3 -6 -4 -6 -2 -20 5
-29 13 -16 12 -16 -6 -1 -11 9 -32 15 -47 14 -34 -4 -68 29 -48 48 10 9 11 9
6 0 -5 -8 -1 -13 9 -13 11 0 15 -5 11 -16 -3 -8 -2 -13 3 -10 5 3 11 19 14 36
8 38 26 39 33 0z m1559 -2750 c3 -5 2 -10 -4 -10 -5 0 -13 5 -16 10 -3 6 -2
10 4 10 5 0 13 -4 16 -10z m299 -15 c3 -8 1 -15 -3 -15 -5 0 -11 7 -15 15 -3
8 -1 15 3 15 5 0 11 -7 15 -15z m-717 -80 c0 -8 -4 -15 -8 -15 -4 0 -9 7 -13
15 -3 9 0 15 8 15 7 0 13 -7 13 -15z m-2482 -981 l40 -14 -60 5 c-33 2 -80 11
-105 19 l-45 15 65 -6 c35 -3 82 -12 105 -19z m3250 16 c8 -13 -5 -13 -25 0
-13 8 -13 10 2 10 9 0 20 -4 23 -10z m-1356 -205 c19 1 35 -4 38 -12 4 -11 9
-10 20 4 13 15 14 16 9 1 -7 -23 26 -52 42 -36 18 18 15 -5 -4 -28 -8 -10 -13
-13 -9 -6 3 6 1 12 -6 12 -6 0 -9 -8 -6 -19 6 -23 -14 -34 -34 -19 -11 8 -10
9 4 4 14 -5 17 -1 15 22 -3 26 -14 42 -31 42 -5 0 -6 -4 -2 -9 3 -5 0 -13 -6
-16 -6 -4 -8 -18 -5 -30 3 -14 1 -27 -6 -31 -7 -4 -8 -3 -4 4 4 7 2 12 -4 12
-7 0 -9 15 -7 41 2 22 1 36 -4 32 -10 -11 -15 -76 -5 -91 4 -7 2 -12 -4 -12
-7 0 -10 -7 -7 -15 4 -8 1 -17 -5 -21 -6 -4 -9 -3 -6 2 3 5 -1 15 -10 23 -13
13 -14 12 -8 -13 6 -25 5 -26 -7 -14 -8 8 -14 27 -14 42 0 20 3 24 10 17 19
-19 36 -13 30 10 -4 14 -8 17 -13 9 -6 -9 -10 -9 -16 1 -12 20 -14 39 -3 39 5
0 9 12 9 26 0 17 -4 23 -12 18 -9 -5 -8 -2 1 10 8 9 17 13 20 9 3 -5 21 -8 40
-8z m171 -71 c0 -2 -9 0 -20 6 -11 6 -20 13 -20 16 0 2 9 0 20 -6 11 -6 20
-13 20 -16z m-124 -11 c-10 -10 -19 5 -10 18 6 11 8 11 12 0 2 -7 1 -15 -2
-18z m-90 -148 c0 -14 -7 -25 -13 -25 -10 0 -10 6 -1 25 14 31 16 31 14 0z m8
-56 c-3 -5 -10 -7 -15 -3 -5 3 -7 10 -3 15 3 5 10 7 15 3 5 -3 7 -10 3 -15z
m-1877 -761 c-3 -8 -6 -5 -6 6 -1 11 2 17 5 13 3 -3 4 -12 1 -19z m-232 -869
c9 -17 14 -33 11 -36 -4 -4 -36 49 -36 62 0 13 11 2 25 -26z"/>
<path d="M2990 8741 c0 -5 5 -13 10 -16 6 -3 10 -2 10 4 0 5 -4 13 -10 16 -5
3 -10 2 -10 -4z"/>
<path d="M3668 8193 c7 -3 16 -2 19 1 4 3 -2 6 -13 5 -11 0 -14 -3 -6 -6z"/>
<path d="M3600 8085 c0 -5 5 -17 10 -25 5 -8 10 -10 10 -5 0 6 -5 17 -10 25
-5 8 -10 11 -10 5z"/>
<path d="M3617 8033 c-4 -3 -7 -11 -7 -17 0 -6 5 -5 12 2 6 6 9 14 7 17 -3 3
-9 2 -12 -2z"/>
<path d="M3627 7908 c9 -51 22 -69 23 -31 0 37 -8 63 -21 63 -5 0 -6 -15 -2
-32z"/>
<path d="M3896 7648 c3 -5 10 -6 15 -3 13 9 11 12 -6 12 -8 0 -12 -4 -9 -9z"/>
<path d="M3830 7601 c0 -5 5 -13 10 -16 6 -3 10 -2 10 4 0 5 -4 13 -10 16 -5
3 -10 2 -10 -4z"/>
<path d="M3160 8170 c0 -6 11 -8 28 -4 39 10 40 14 4 14 -18 0 -32 -5 -32 -10z"/>
<path d="M3157 8144 c-3 -3 -29 -9 -57 -13 -52 -6 -71 -28 -22 -24 38 3 102
25 102 35 0 9 -14 11 -23 2z"/>
<path d="M3105 7659 c-4 -6 -5 -12 -2 -15 2 -3 7 2 10 11 7 17 1 20 -8 4z"/>
<path d="M3441 7354 c-19 -22 -1 -31 46 -25 21 3 30 6 21 9 -21 4 -24 18 -5
25 6 3 -1 6 -18 6 -16 0 -36 -7 -44 -15z"/>
<path d="M3250 7120 c0 -5 5 -10 11 -10 5 0 7 5 4 10 -3 6 -8 10 -11 10 -2 0
-4 -4 -4 -10z"/>
<path d="M3458 7081 c11 -30 42 -42 42 -16 0 8 -7 15 -16 15 -8 0 -13 4 -10 8
3 5 -1 9 -8 9 -9 0 -12 -7 -8 -16z"/>
<path d="M3345 7010 c3 -5 8 -10 11 -10 2 0 4 5 4 10 0 6 -5 10 -11 10 -5 0
-7 -4 -4 -10z"/>
<path d="M3480 6999 c0 -5 5 -7 10 -4 6 3 10 8 10 11 0 2 -4 4 -10 4 -5 0 -10
-5 -10 -11z"/>
<path d="M3411 6984 c0 -11 3 -14 6 -6 3 7 2 16 -1 19 -3 4 -6 -2 -5 -13z"/>
<path d="M3935 6710 c-12 -4 -27 -15 -35 -25 -11 -13 -5 -12 25 5 56 31 60 41
10 20z"/>
<path d="M3955 6660 c-3 -6 1 -7 9 -4 18 7 21 14 7 14 -6 0 -13 -4 -16 -10z"/>
<path d="M3678 6493 c7 -3 16 -2 19 1 4 3 -2 6 -13 5 -11 0 -14 -3 -6 -6z"/>
<path d="M3527 6419 c7 -7 15 -10 18 -7 3 3 -2 9 -12 12 -14 6 -15 5 -6 -5z"/>
<path d="M3466 6398 c3 -5 10 -6 15 -3 13 9 11 12 -6 12 -8 0 -12 -4 -9 -9z"/>
<path d="M3331 6366 c4 -4 21 -11 39 -16 20 -6 30 -6 24 -1 -10 11 -72 27 -63
17z"/>
<path d="M3450 6356 c0 -2 8 -10 18 -17 15 -13 16 -12 3 4 -13 16 -21 21 -21
13z"/>
<path d="M3615 6339 c-11 -16 -1 -19 13 -3 7 8 8 14 3 14 -5 0 -13 -5 -16 -11z"/>
<path d="M3410 6320 c0 -5 5 -10 11 -10 5 0 7 5 4 10 -3 6 -8 10 -11 10 -2 0
-4 -4 -4 -10z"/>
<path d="M3460 6299 c0 -5 5 -7 10 -4 6 3 10 8 10 11 0 2 -4 4 -10 4 -5 0 -10
-5 -10 -11z"/>
<path d="M3616 6297 c3 -10 9 -15 12 -12 3 3 0 11 -7 18 -10 9 -11 8 -5 -6z"/>
<path d="M4030 6266 c-5 -5 -10 -15 -10 -20 0 -6 5 -3 11 7 6 9 14 15 19 12 5
-3 11 -2 14 3 7 12 -21 11 -34 -2z"/>
<path d="M3930 6214 c0 -8 5 -12 10 -9 6 4 8 11 5 16 -9 14 -15 11 -15 -7z"/>
<path d="M3000 6159 c0 -8 12 -22 26 -33 26 -18 26 -18 16 1 -6 11 -18 25 -26
33 -13 10 -16 10 -16 -1z"/>
<path d="M3896 6153 c-6 -14 -5 -15 5 -6 7 7 10 15 7 18 -3 3 -9 -2 -12 -12z"/>
<path d="M3875 6080 c-3 -5 1 -10 9 -10 9 0 16 5 16 10 0 6 -4 10 -9 10 -6 0
-13 -4 -16 -10z"/>
<path d="M3053 6032 c1 -12 6 -18 15 -15 7 3 10 9 5 12 -4 3 -11 10 -15 15 -4
4 -6 -1 -5 -12z"/>
<path d="M3932 5952 c-1 -24 0 -25 9 -9 7 11 7 23 2 28 -5 5 -9 -3 -11 -19z"/>
<path d="M3865 5940 c3 -5 8 -10 11 -10 2 0 4 5 4 10 0 6 -5 10 -11 10 -5 0
-7 -4 -4 -10z"/>
<path d="M3845 5920 c-3 -5 -1 -10 4 -10 6 0 11 5 11 10 0 6 -2 10 -4 10 -3 0
-8 -4 -11 -10z"/>
<path d="M3830 5889 c0 -5 -4 -7 -10 -4 -5 3 -10 -1 -10 -9 0 -10 -7 -13 -21
-11 -17 4 -19 2 -9 -10 16 -20 22 -19 48 5 23 22 29 40 12 40 -5 0 -10 -5 -10
-11z"/>
<path d="M3860 5890 c0 -6 7 -10 15 -10 8 0 15 2 15 4 0 2 -7 6 -15 10 -8 3
-15 1 -15 -4z"/>
<path d="M3216 5877 c3 -10 9 -15 12 -12 3 3 0 11 -7 18 -10 9 -11 8 -5 -6z"/>
<path d="M3293 5833 c1 -18 5 -33 10 -33 10 0 9 32 -3 50 -7 11 -9 6 -7 -17z"/>
<path d="M3055 5839 c-4 -6 -5 -12 -2 -15 2 -3 7 2 10 11 7 17 1 20 -8 4z"/>
<path d="M3540 5829 c0 -5 5 -7 10 -4 6 3 10 8 10 11 0 2 -4 4 -10 4 -5 0 -10
-5 -10 -11z"/>
<path d="M3456 5815 c4 -8 13 -15 21 -15 12 0 12 2 -1 15 -8 8 -17 15 -20 15
-3 0 -3 -7 0 -15z"/>
<path d="M3611 5811 c0 -7 -7 -11 -16 -7 -16 6 -45 -29 -44 -54 0 -9 4 -6 9 8
8 18 30 32 30 18 0 -18 -17 -39 -36 -46 -16 -6 -22 -15 -18 -25 3 -8 10 -15
15 -15 4 0 6 7 2 16 -4 12 -2 15 8 12 15 -5 21 -55 8 -64 -4 -2 -6 -12 -2 -22
3 -9 -6 -3 -21 13 -24 29 -33 64 -19 79 15 15 9 47 -11 57 -20 9 -20 9 -3 -4
13 -11 15 -16 5 -19 -7 -3 -12 -17 -10 -33 1 -16 0 -26 -3 -24 -5 6 -13 45
-14 72 -1 9 -5 17 -11 17 -5 0 -10 -8 -10 -17 0 -15 -2 -16 -10 -3 -8 13 -10
13 -10 -1 0 -9 9 -24 20 -34 19 -17 18 -41 -1 -29 -5 3 -6 10 -3 16 4 6 2 8
-4 5 -22 -14 -44 5 -40 35 3 20 1 27 -8 24 -7 -3 -15 0 -18 7 -2 7 -5 2 -5
-10 -1 -29 -14 -35 -45 -24 -21 9 -24 7 -23 -9 1 -12 7 -17 20 -14 11 2 27 -1
36 -7 13 -8 11 -9 -7 -4 l-23 7 20 -39 c11 -21 29 -51 40 -67 11 -17 18 -33
15 -38 -3 -4 1 -5 9 -2 16 6 41 -49 29 -61 -4 -4 -2 -6 3 -5 24 5 35 -1 35
-19 0 -13 6 -19 19 -18 11 0 17 5 14 10 -7 12 18 38 30 30 5 -3 7 -2 4 3 -3 6
14 43 39 84 44 74 53 97 34 85 -5 -3 -10 -1 -10 4 0 6 5 12 10 12 6 1 16 2 22
3 22 2 20 34 -3 57 -20 20 -22 20 -31 5 -6 -10 -8 -26 -5 -37 3 -10 2 -21 -3
-24 -11 -7 -19 42 -8 53 5 5 8 20 5 33 -2 13 -5 18 -6 10z m35 -78 c-11 -11
-19 6 -11 24 8 17 8 17 12 0 3 -10 2 -21 -1 -24z m-48 -113 c-7 -10 -14 -17
-17 -15 -4 4 18 35 25 35 2 0 -1 -9 -8 -20z"/>
<path d="M3700 5817 c0 -1 -4 -16 -9 -33 -6 -22 -5 -31 3 -31 7 0 13 15 14 34
2 18 0 33 -3 33 -3 0 -5 -1 -5 -3z"/>
<path d="M3008 5683 c7 -3 16 -2 19 1 4 3 -2 6 -13 5 -11 0 -14 -3 -6 -6z"/>
<path d="M3530 5677 c0 -2 6 -10 14 -16 11 -9 16 -9 22 1 4 7 4 10 -1 6 -4 -4
-14 -3 -22 3 -7 6 -13 9 -13 6z"/>
<path d="M3010 5659 c0 -5 5 -7 10 -4 6 3 10 8 10 11 0 2 -4 4 -10 4 -5 0 -10
-5 -10 -11z"/>
<path d="M3909 5563 c-13 -16 -12 -17 4 -4 9 7 17 15 17 17 0 8 -8 3 -21 -13z"/>
<path d="M3181 5498 c-1 -9 -6 -18 -12 -20 -14 -5 -1 -35 16 -35 8 0 12 4 9 8
-2 4 2 11 10 16 11 6 12 13 6 23 -9 13 -10 13 -11 0 0 -10 -3 -8 -9 5 -7 16
-9 17 -9 3z"/>
<path d="M3755 5500 c-3 -5 -1 -10 4 -10 6 0 11 5 11 10 0 6 -2 10 -4 10 -3 0
-8 -4 -11 -10z"/>
<path d="M3766 5406 c0 -40 4 -78 8 -84 4 -7 2 -12 -4 -12 -7 0 -8 -5 -3 -12
4 -7 8 -29 9 -48 1 -50 14 -87 24 -69 8 13 14 68 10 79 -15 37 -12 114 5 126
14 10 14 12 0 18 -11 4 -14 2 -9 -7 4 -7 3 -9 -2 -4 -10 9 -11 14 -13 51 0 13
-7 26 -14 29 -9 3 -12 -13 -11 -67z"/>
<path d="M3815 5440 c-10 -11 -14 -20 -9 -20 5 0 15 9 22 20 7 11 11 20 9 20
-2 0 -12 -9 -22 -20z"/>
<path d="M3176 5282 c-2 -4 0 -14 5 -22 8 -13 10 -13 19 0 5 8 9 20 9 25 0 6
-3 4 -6 -2 -2 -7 -9 -13 -14 -13 -6 0 -7 5 -4 10 3 6 4 10 1 10 -3 0 -7 -4
-10 -8z"/>
<path d="M3691 5274 c0 -11 3 -14 6 -6 3 7 2 16 -1 19 -3 4 -6 -2 -5 -13z"/>
<path d="M3691 5234 c0 -11 3 -14 6 -6 3 7 2 16 -1 19 -3 4 -6 -2 -5 -13z"/>
<path d="M1202 5180 c0 -19 2 -27 5 -17 2 9 2 25 0 35 -3 9 -5 1 -5 -18z"/>
<path d="M3707 5204 c-3 -3 -3 -13 0 -21 5 -12 7 -12 14 -1 15 23 4 40 -14 22z"/>
<path d="M3744 5186 c-6 -7 -15 -22 -18 -34 -6 -17 -4 -21 8 -16 13 5 16 -1
16 -27 1 -36 10 -28 25 20 6 19 4 23 -8 18 -21 -8 -28 2 -16 25 13 23 9 31 -7
14z"/>
<path d="M3659 5045 c-1 -5 -1 -13 0 -17 0 -4 -6 -5 -14 -2 -9 4 -15 0 -15
-10 0 -9 5 -16 10 -16 6 0 10 -4 10 -9 0 -5 7 -26 16 -47 l17 -39 28 60 c15
33 28 63 28 68 1 11 -37 8 -44 -4 -5 -6 -12 -4 -21 8 -7 10 -14 14 -15 8z"/>
<path d="M2741 4976 c2 -2 18 -10 35 -19 28 -14 31 -14 42 4 11 18 9 19 -35
19 -25 0 -44 -2 -42 -4z"/>
<path d="M3307 4972 c7 -4 23 -27 35 -51 13 -24 28 -41 33 -39 13 4 8 40 -6
49 -8 4 -7 8 2 12 21 9 -19 37 -50 37 -16 0 -21 -3 -14 -8z"/>
<path d="M2866 4888 c3 -4 9 -8 15 -8 5 0 9 4 9 8 0 5 -7 9 -15 9 -8 0 -12 -4
-9 -9z"/>
<path d="M2896 4882 c-4 -13 -5 -26 -2 -29 10 -11 18 4 14 29 l-4 23 -8 -23z"/>
<path d="M5306 4883 c-6 -14 -5 -15 5 -6 7 7 10 15 7 18 -3 3 -9 -2 -12 -12z"/>
<path d="M3490 4790 c-2 -14 -4 -29 -5 -35 -2 -5 -3 -20 -4 -31 -1 -29 -32
-35 -56 -11 -11 11 -14 17 -7 13 6 -4 12 -2 12 3 0 6 -7 11 -15 11 -8 0 -15 5
-15 12 0 6 -2 9 -5 6 -3 -2 6 -35 18 -73 l23 -68 21 29 c27 38 46 102 40 139
-4 28 -4 28 -7 5z"/>
<path d="M3110 4741 c0 -23 15 -43 41 -56 45 -24 56 -17 24 14 -16 16 -33 27
-37 24 -5 -2 -8 3 -8 11 0 9 -4 16 -10 16 -5 0 -10 -4 -10 -9z"/>
<path d="M3220 4650 c0 -6 8 -14 18 -17 9 -4 34 -17 54 -30 21 -13 48 -23 60
-22 22 0 22 1 3 8 -11 5 -23 7 -27 5 -4 -3 -13 4 -20 14 -15 20 -62 52 -78 52
-5 0 -10 -5 -10 -10z"/>
<path d="M3527 4453 l-37 -26 0 -119 c0 -72 4 -118 10 -118 6 0 10 14 10 31 0
38 24 35 28 -4 2 -15 10 -27 18 -27 8 0 14 -7 14 -15 0 -8 -7 -15 -15 -15 -12
0 -15 -14 -15 -70 0 -57 3 -70 16 -70 26 0 9 -25 -19 -28 l-27 -3 0 85 c0 50
-4 86 -10 86 -12 0 -15 -12 -40 -210 -12 -91 -28 -213 -37 -273 -9 -59 -13
-110 -10 -113 3 -4 52 -1 108 6 93 12 103 11 111 -4 9 -16 12 -16 34 -1 14 9
29 13 34 10 6 -3 10 -1 10 4 0 15 43 14 57 0 9 -9 11 -7 9 7 -2 14 -13 19 -39
22 -21 1 -37 -1 -37 -5 0 -5 -10 -14 -22 -22 -20 -13 -22 -12 -10 1 14 17 10
74 -33 513 -22 217 -50 385 -65 385 -3 0 -22 -12 -43 -27z m-10 -498 c0 -8 -3
-13 -6 -11 -3 2 -11 -2 -18 -9 -9 -10 -9 -14 1 -18 15 -6 14 -43 -2 -59 -7 -7
-12 -17 -12 -22 0 -6 4 -4 10 4 5 8 11 12 14 9 3 -2 1 -11 -4 -19 -7 -11 -12
-12 -21 -3 -15 15 -7 49 12 45 12 -2 12 0 -1 10 -8 7 -14 20 -14 28 1 8 2 25
3 38 1 25 38 32 38 7z m-37 -149 c0 -2 -7 -9 -15 -16 -13 -11 -14 -10 -9 4 5
14 24 23 24 12z"/>
<path d="M1570 4441 c0 -23 -41 -61 -66 -62 -18 0 -18 -1 1 -9 11 -5 14 -9 7
-9 -7 -1 -10 -6 -6 -12 9 -15 -85 -2 -104 14 -11 9 -13 5 -10 -19 2 -24 7 -28
26 -26 13 2 43 -8 68 -23 25 -14 66 -33 92 -40 26 -8 79 -38 117 -66 39 -29
114 -81 168 -116 87 -57 224 -183 250 -229 8 -14 65 -44 82 -44 3 0 -12 18
-34 41 -23 22 -40 43 -39 47 3 8 -59 70 -112 112 -21 17 -47 47 -57 66 -15 29
-39 48 -118 91 -55 30 -108 57 -117 60 -10 3 -18 9 -18 14 0 9 -72 49 -89 49
-6 0 -27 11 -47 25 -20 14 -33 25 -28 25 5 0 2 5 -6 10 -12 7 -11 13 9 34 13
14 27 24 30 22 3 -2 20 4 38 13 l31 18 -34 15 c-31 14 -34 14 -34 -1z"/>
<path d="M5154 4384 c3 -8 2 -13 -2 -10 -5 3 -16 -8 -26 -25 -9 -16 -21 -29
-26 -29 -12 0 -60 -82 -60 -103 0 -9 4 -18 9 -21 13 -8 42 4 35 15 -3 5 0 9 6
9 5 0 26 26 46 58 20 31 45 69 55 84 25 36 24 38 -12 38 -24 0 -30 -4 -25 -16z"/>
<path d="M1837 4367 c15 -13 42 -30 58 -39 17 -8 57 -30 90 -48 l60 -34 -57
53 c-31 28 -60 61 -63 72 -5 16 -16 19 -61 19 l-56 0 29 -23z"/>
<path d="M1418 4218 c5 -5 16 -8 23 -6 8 3 3 7 -10 11 -17 4 -21 3 -13 -5z"/>
<path d="M1487 4213 c-20 -10 -26 -18 -19 -25 12 -12 28 -4 42 23 6 10 9 19 8
18 -2 -1 -16 -8 -31 -16z"/>
<path d="M1360 4199 c0 -21 94 -100 175 -147 57 -34 109 -77 181 -151 56 -57
112 -115 125 -128 13 -13 61 -56 107 -94 77 -64 87 -69 130 -69 l47 0 -48 46
c-26 25 -45 50 -41 55 7 12 -45 59 -65 59 -24 0 -81 44 -81 62 0 28 -61 85
-120 112 -30 13 -72 41 -94 60 -21 20 -42 36 -48 36 -17 0 -129 81 -123 89 7
13 -27 23 -38 12 -6 -6 1 -19 19 -37 l29 -27 -35 26 c-19 14 -34 31 -32 37 1
6 -2 9 -7 6 -6 -4 -26 10 -45 29 -20 20 -36 31 -36 24z"/>
<path d="M2316 4160 c23 -41 65 -97 85 -115 12 -11 0 9 -26 45 -51 69 -74 96
-59 70z"/>
<path d="M2470 4092 c0 -20 27 -62 40 -62 5 0 1 18 -8 40 -18 42 -32 52 -32
22z"/>
<path d="M2493 3983 c18 -21 23 -48 7 -38 -6 4 2 -15 19 -42 16 -26 32 -64 37
-83 11 -49 11 -50 14 -52 1 -2 3 -11 5 -20 2 -10 22 -37 44 -60 23 -24 43 -51
47 -60 3 -11 15 -18 29 -18 24 0 24 0 -19 93 -24 50 -62 136 -86 190 -23 53
-47 97 -54 97 -6 0 -22 3 -36 7 -24 6 -24 6 -7 -14z"/>
<path d="M2460 3975 c7 -9 15 -13 17 -11 7 7 -7 26 -19 26 -6 0 -6 -6 2 -15z"/>
<path d="M1170 3975 c0 -5 5 -17 10 -25 5 -8 10 -10 10 -5 0 6 -5 17 -10 25
-5 8 -10 11 -10 5z"/>
<path d="M1190 3910 c0 -8 5 -22 10 -30 9 -13 10 -13 10 0 0 8 -5 22 -10 30
-9 13 -10 13 -10 0z"/>
<path d="M1211 3844 c0 -11 3 -14 6 -6 3 7 2 16 -1 19 -3 4 -6 -2 -5 -13z"/>
<path d="M4070 3700 c-12 -9 -8 -10 17 -5 18 4 34 2 38 -5 3 -5 11 -8 16 -4 5
3 18 0 27 -7 16 -12 16 -11 1 4 -19 22 -79 32 -99 17z"/>
<path d="M2460 3675 c-7 -9 -8 -15 -2 -15 5 0 12 7 16 15 3 8 4 15 2 15 -2 0
-9 -7 -16 -15z"/>
<path d="M3995 3671 c-3 -6 3 -9 14 -8 11 0 17 5 15 9 -7 11 -22 10 -29 -1z"/>
<path d="M3888 3641 c-48 -14 -87 -25 -85 -26 10 -8 67 -13 62 -6 -7 12 36 1
54 -13 12 -9 13 -8 8 6 -4 13 -2 15 10 11 13 -5 15 -2 10 12 -6 14 -5 15 6 7
16 -14 36 -2 28 18 -5 13 -18 12 -93 -9z"/>
<path d="M2616 3643 c-11 -11 -6 -20 19 -31 14 -6 25 -8 25 -4 0 12 -38 41
-44 35z"/>
<path d="M4020 3638 c8 -7 21 -20 28 -28 11 -13 12 -11 4 10 -5 14 -18 27 -28
28 -17 3 -17 2 -4 -10z"/>
<path d="M4246 3636 c3 -8 13 -17 22 -21 13 -5 13 -2 -3 15 -21 24 -26 25 -19
6z"/>
<path d="M1870 3618 c-12 -22 -12 -22 6 -6 10 10 15 20 12 24 -4 3 -12 -5 -18
-18z"/>
<path d="M1911 3584 c0 -11 3 -14 6 -6 3 7 2 16 -1 19 -3 4 -6 -2 -5 -13z"/>
<path d="M3770 3516 c0 -2 7 -9 15 -16 13 -11 14 -10 9 4 -5 14 -24 23 -24 12z"/>
<path d="M4900 3471 c0 -6 4 -13 10 -16 6 -3 7 1 4 9 -7 18 -14 21 -14 7z"/>
<path d="M5776 3471 c-4 -6 -13 -8 -20 -5 -8 3 -17 1 -21 -5 -3 -7 3 -11 17
-12 53 -2 84 -5 106 -13 12 -4 22 -3 22 1 0 5 -17 15 -37 22 -21 8 -43 16 -49
18 -7 2 -15 0 -18 -6z"/>
<path d="M4845 3410 c-3 -5 -1 -10 4 -10 6 0 11 5 11 10 0 6 -2 10 -4 10 -3 0
-8 -4 -11 -10z"/>
<path d="M4863 3370 c-1 -11 2 -20 5 -20 4 0 8 9 9 20 1 11 -2 20 -5 20 -4 0
-8 -9 -9 -20z"/>
<path d="M4927 3380 c6 -7 9 -20 6 -29 -3 -9 -1 -12 4 -6 4 6 11 12 15 15 4 3
-3 12 -15 19 -15 9 -18 10 -10 1z"/>
<path d="M3811 3314 c0 -11 3 -14 6 -6 3 7 2 16 -1 19 -3 4 -6 -2 -5 -13z"/>
<path d="M6055 3280 c3 -5 12 -10 18 -10 7 0 36 -11 66 -25 30 -14 55 -24 57
-22 2 2 -17 18 -41 35 -43 30 -115 46 -100 22z"/>
<path d="M3975 3210 c3 -5 8 -10 11 -10 2 0 4 5 4 10 0 6 -5 10 -11 10 -5 0
-7 -4 -4 -10z"/>
<path d="M6215 3190 c-3 -6 1 -7 9 -4 18 7 21 14 7 14 -6 0 -13 -4 -16 -10z"/>
<path d="M4698 2339 c-32 -16 -58 -32 -58 -34 0 -5 119 52 129 61 13 12 -22
-1 -71 -27z"/>
<path d="M4828 2233 c7 -3 16 -2 19 1 4 3 -2 6 -13 5 -11 0 -14 -3 -6 -6z"/>
<path d="M4153 2163 c9 -2 23 -2 30 0 6 3 -1 5 -18 5 -16 0 -22 -2 -12 -5z"/>
<path d="M4250 2160 c0 -5 7 -7 15 -4 8 4 15 8 15 10 0 2 -7 4 -15 4 -8 0 -15
-4 -15 -10z"/>
<path d="M3685 2039 c-11 -16 -1 -19 13 -3 7 8 8 14 3 14 -5 0 -13 -5 -16 -11z"/>
<path d="M2130 1041 c0 -5 5 -13 10 -16 6 -3 10 -2 10 4 0 5 -4 13 -10 16 -5
3 -10 2 -10 -4z"/>
<path d="M2136 975 c4 -8 10 -15 15 -15 4 0 6 7 3 15 -4 8 -10 15 -15 15 -4 0
-6 -7 -3 -15z"/>
<path d="M2151 945 c1 -19 18 -51 18 -35 0 8 -4 22 -9 30 -5 8 -9 11 -9 5z"/>
<path d="M2107 843 c-4 -3 -7 -20 -7 -37 0 -21 -3 -27 -9 -18 -6 10 -10 9 -14
-7 -3 -12 -1 -18 4 -15 6 3 7 -4 4 -18 -7 -26 9 -78 23 -78 5 0 9 41 9 90 0
50 -1 90 -2 90 -1 0 -5 -3 -8 -7z"/>
<path d="M2044 726 c4 -16 9 -47 13 -69 l5 -42 -21 19 c-25 23 -29 3 -6 -28 8
-11 15 -26 15 -35 0 -8 7 -23 17 -33 11 -13 12 -18 3 -18 -10 0 -9 -4 1 -17 9
-11 10 -14 2 -9 -10 5 -11 1 -4 -16 6 -16 4 -30 -6 -45 -14 -22 -40 -23 -27
-2 9 16 -5 59 -20 59 -20 0 -28 -93 -12 -126 9 -15 17 -21 21 -15 10 17 27 1
22 -20 -3 -10 -1 -22 4 -25 5 -3 9 -9 9 -15 0 -20 -17 -7 -40 30 -20 31 -26
36 -32 23 -4 -10 -7 4 -9 33 -1 28 -4 40 -6 28 -2 -13 -10 -23 -16 -23 -7 0
-6 -4 3 -10 12 -8 11 -10 -7 -10 -13 0 -23 4 -23 9 0 6 -11 22 -25 37 -13 14
-22 30 -20 35 3 4 -3 13 -14 18 -15 8 -20 7 -25 -5 -12 -31 -6 -63 16 -78 12
-9 18 -16 13 -16 -5 0 -4 -5 2 -11 6 -6 9 -18 6 -25 -3 -8 0 -14 6 -14 21 0
11 -26 -10 -27 -28 -2 -37 -12 -21 -22 7 -4 12 -12 11 -17 -5 -26 2 -35 24
-29 15 4 18 4 8 -3 -11 -8 -10 -12 5 -21 11 -6 14 -11 8 -11 -11 0 -16 -30 -5
-30 13 0 34 -47 37 -79 2 -32 1 -33 -30 -27 -22 4 -27 3 -16 -4 13 -9 13 -10
0 -10 -12 -1 -11 -3 3 -14 22 -17 247 -23 247 -7 0 6 -10 17 -21 25 -15 10
-23 27 -25 52 -1 22 -9 43 -20 51 -10 7 -15 16 -11 19 4 4 3 12 -2 18 -15 18
-24 96 -12 96 10 0 15 -14 9 -24 -5 -7 35 -46 48 -46 8 0 11 10 9 30 -3 22 -1
29 8 23 8 -5 8 -2 -1 9 -15 19 -23 74 -15 105 6 27 33 31 34 6 1 -19 2 -25 18
-93 6 -25 11 -60 11 -78 0 -20 6 -35 15 -38 8 -4 12 -10 9 -15 -7 -12 14 -49
29 -49 7 0 6 4 -3 10 -8 5 -10 10 -5 10 6 0 3 5 -5 11 -11 7 -12 12 -3 15 8 4
5 12 -8 25 -16 16 -17 23 -8 41 8 15 8 22 -1 28 -7 4 -9 13 -6 19 4 6 1 11 -6
11 -8 1 -6 6 6 15 17 13 18 15 3 15 -9 0 -17 4 -17 10 0 5 7 7 15 4 15 -6 5
28 -65 215 -17 46 -27 87 -22 90 17 11 9 39 -15 50 -14 7 -26 23 -30 41 -3 17
-10 33 -16 37 -6 4 -7 -4 -3 -21z m56 -76 c0 -5 -2 -10 -4 -10 -3 0 -8 5 -11
10 -3 6 -1 10 4 10 6 0 11 -4 11 -10z m-113 -372 c-3 -7 -5 -2 -5 12 0 14 2
19 5 13 2 -7 2 -19 0 -25z m-87 -38 c0 -5 -2 -10 -4 -10 -3 0 -8 5 -11 10 -3
6 -1 10 4 10 6 0 11 -4 11 -10z"/>
<path d="M2355 495 c9 -37 9 -66 0 -131 -7 -51 -7 -51 24 -62 17 -6 31 -8 31
-5 0 4 15 -8 33 -25 18 -18 37 -29 42 -25 4 5 5 3 1 -4 -3 -6 -2 -14 4 -18 5
-3 10 -18 10 -33 0 -21 3 -24 10 -12 7 12 10 11 16 -5 4 -11 12 -23 16 -26 5
-3 10 -14 12 -23 1 -10 9 -22 17 -27 8 -5 10 -9 5 -9 -5 0 12 -14 38 -31 54
-36 69 -31 42 14 -10 18 -27 48 -38 67 -11 19 -23 37 -27 40 -4 3 -17 21 -28
40 -23 37 -110 123 -134 132 -12 5 -32 57 -45 115 -1 6 -10 22 -19 35 l-17 23
7 -30z"/>
<path d="M2215 459 c4 -19 14 -41 22 -49 14 -13 14 -13 4 7 -6 12 -11 31 -11
42 0 11 -5 23 -11 27 -8 4 -9 -4 -4 -27z"/>
<path d="M2127 365 c-4 -8 -3 -16 1 -19 4 -3 9 4 9 15 2 23 -3 25 -10 4z"/>
<path d="M2085 166 c1 -11 9 -22 18 -24 10 -2 17 -13 17 -28 0 -13 3 -24 8
-24 4 0 7 19 7 42 0 36 -4 43 -26 49 -22 5 -25 3 -24 -15z"/>
<path d="M2131 64 c0 -11 3 -14 6 -6 3 7 2 16 -1 19 -3 4 -6 -2 -5 -13z"/>
</g>
</svg>
