<svg width="430.72999267578126px" height="120.8px" xmlns="http://www.w3.org/2000/svg" viewBox="34.63500366210937 14.600000000000001 430.72999267578126 120.8" style="background: rgba(0, 0, 0, 0);" preserveAspectRatio="xMidYMid"><defs><filter id="editing-raise" x="-100%" y="-100%" width="300%" height="300%"><feFlood flood-color="#ccc" result="flood-surface"></feFlood><feFlood flood-color="#777777" result="flood-extrude"></feFlood><feMorphology operator="erode" in="SourceAlpha" radius="1" result="erode"></feMorphology><feConvolveMatrix in="erode" result="shadow" order="11,8" divisor="1" kernelMatrix="0 0 0 1 1 1 1 1 0 0 0 0 0 1 0 0 0 0 0 1 0 0 0 0 1 0 0 0 0 0 1 0 0 0 0 1 0 0 0 0 0 1 0 0 0 0 1 0 0 0 0 0 1 0 0 0 0 0 1 0 0 0 1 0 0 0 0 0 0 1 1 0 1 1 0 0 0 0 0 0 0 0 1 0 0 0 0 0"></feConvolveMatrix><feOffset dx="0" dy="4" in="shadow" result="offset"></feOffset><feGaussianBlur in="offset" stdDeviation="0.2" result="blur"></feGaussianBlur><feComposite operator="in" in="flood-extrude" in2="blur" result="extrude"></feComposite><feMorphology operator="erode" in="SourceAlpha" radius="1" result="erode2"></feMorphology><feConvolveMatrix in="erode2" result="out" order="4,4" divisor="1" kernelMatrix="0 1 1 0 1 0 0 1 1 0 0 1 0 1 1 0 "></feConvolveMatrix><feComposite operator="in" in="flood-surface" in2="out" result="text"></feComposite><feMerge><feMergeNode in="extrude"></feMergeNode><feMergeNode in="text"></feMergeNode></feMerge></filter></defs><g filter="url(#editing-raise)"><g transform="translate(100.01413547992706, 98.68000030517578)"><path d="M6.53 0L-0.83 0L10.75-42.24L24.13-42.24L27.07-18.11L38.98-42.24L50.18-42.24L51.33-10.62L51.33-10.62Q51.58-4.35 54.66-2.43L54.66-2.43L54.66-2.43Q53.95-1.15 51.90 0.06L51.90 0.06L51.90 0.06Q49.86 1.28 47.14 1.28L47.14 1.28L47.14 1.28Q44.42 1.28 42.82 0.51L42.82 0.51L42.82 0.51Q41.22-0.26 40.32-1.54L40.32-1.54L40.32-1.54Q38.72-3.84 38.72-8.26L38.72-8.26L38.72-28.03L26.11 0L18.18 0L13.70-28.74L6.53 0ZM83.33-10.82L83.33-10.82L83.33-10.82Q84.93-9.73 84.93-7.33L84.93-7.33L84.93-7.33Q84.93-4.93 83.71-3.39L83.71-3.39L83.71-3.39Q82.50-1.86 80.51-0.83L80.51-0.83L80.51-0.83Q76.42 1.28 72 1.28L72 1.28L72 1.28Q67.58 1.28 64.99 0.32L64.99 0.32L64.99 0.32Q62.40-0.64 60.67-2.43L60.67-2.43L60.67-2.43Q57.28-5.82 57.28-12.03L57.28-12.03L57.28-12.03Q57.28-21.70 62.53-27.58L62.53-27.58L62.53-27.58Q68.16-33.92 77.95-33.92L77.95-33.92L77.95-33.92Q84.03-33.92 87.04-31.36L87.04-31.36L87.04-31.36Q89.28-29.44 89.28-26.30L89.28-26.30L89.28-26.30Q89.28-15.04 69.82-15.04L69.82-15.04L69.82-15.04Q69.57-13.38 69.57-11.97L69.57-11.97L69.57-11.97Q69.57-9.02 70.88-7.90L70.88-7.90L70.88-7.90Q72.19-6.78 74.62-6.78L74.62-6.78L74.62-6.78Q77.06-6.78 79.65-7.90L79.65-7.90L79.65-7.90Q82.24-9.02 83.33-10.82ZM70.27-17.79L70.27-17.79L70.27-17.79Q74.82-17.79 77.44-20.61L77.44-20.61L77.44-20.61Q80.06-23.30 80.06-27.58L80.06-27.58L80.06-27.58Q80.06-29.06 79.52-29.86L79.52-29.86L79.52-29.86Q78.98-30.66 77.89-30.66L77.89-30.66L77.89-30.66Q76.80-30.66 75.87-30.24L75.87-30.24L75.87-30.24Q74.94-29.82 73.98-28.42L73.98-28.42L73.98-28.42Q71.62-25.22 70.27-17.79ZM111.62-33.92L111.62-33.92L111.62-33.92Q113.92-33.92 115.71-33.41L115.71-33.41L115.71-33.41Q115.78-33.66 115.90-34.37L115.90-34.37L116.22-36.35L116.22-36.35Q116.48-37.63 116.86-39.74L116.86-39.74L117.89-44.80L130.62-46.08L123.52-8.96L123.52-8.96Q123.46-8.58 123.46-7.94L123.46-7.94L123.46-6.91L123.46-6.91Q123.46-5.50 124.16-4.45L124.16-4.45L124.16-4.45Q124.86-3.39 126.02-3.39L126.02-3.39L126.02-3.39Q124.74-0.38 120.83 0.90L120.83 0.90L120.83 0.90Q119.49 1.28 117.60 1.28L117.60 1.28L117.60 1.28Q115.71 1.28 113.98 0.29L113.98 0.29L113.98 0.29Q112.26-0.70 111.74-2.37L111.74-2.37L111.74-2.37Q110.72-0.70 108.67 0.29L108.67 0.29L108.67 0.29Q106.62 1.28 103.65 1.28L103.65 1.28L103.65 1.28Q100.67 1.28 98.21 0.51L98.21 0.51L98.21 0.51Q95.74-0.26 94.21-1.92L94.21-1.92L94.21-1.92Q91.39-5.18 91.39-12.61L91.39-12.61L91.39-12.61Q91.39-22.21 97.02-28.03L97.02-28.03L97.02-28.03Q102.66-33.92 111.62-33.92ZM111.17-30.08L111.17-30.08L111.17-30.08Q108.80-30.08 107.52-27.52L107.52-27.52L107.52-27.52Q106.24-24.96 104.93-18.62L104.93-18.62L104.93-18.62Q103.62-12.29 103.62-6.59L103.62-6.59L103.62-6.59Q103.62-2.69 105.92-2.69L105.92-2.69L105.92-2.69Q107.97-2.69 109.41-4.74L109.41-4.74L109.41-4.74Q110.85-6.78 111.42-10.18L111.42-10.18L114.88-28.93L114.88-28.93Q113.54-30.08 111.17-30.08ZM158.78-9.86L158.78-9.86L158.78-9.86Q160-8.32 160-5.82L160-5.82L160-5.82Q160-2.37 157.44-0.54L157.44-0.54L157.44-0.54Q154.88 1.28 150.85 1.28L150.85 1.28L150.85 1.28Q148.54 1.28 145.02 0.77L145.02 0.77L145.02 0.77Q138.11-0.32 136-0.32L136-0.32L136-0.32Q133.89-0.32 133.06-0.22L133.06-0.22L133.06-0.22Q132.22-0.13 130.88 0L130.88 0L138.75-42.24L166.34-42.24L166.34-42.24Q166.34-38.34 164.45-36.29L164.45-36.29L164.45-36.29Q162.56-34.24 158.85-34.24L158.85-34.24L158.85-34.24Q155.14-34.24 151.36-35.97L151.36-35.97L149.38-24.77L160.77-24.77L160.77-24.77Q160.77-21.38 159.10-19.49L159.10-19.49L159.10-19.49Q157.44-17.60 154.66-17.60L154.66-17.60L154.66-17.60Q151.87-17.60 150.14-18.24L150.14-18.24L150.14-18.24Q148.42-18.88 148.22-19.07L148.22-19.07L145.92-6.98L145.92-6.98Q147.46-6.78 150.34-6.78L150.34-6.78L150.34-6.78Q155.26-6.78 158.78-9.86ZM168.67-1.92L168.67-1.92L168.67-1.92Q167.17-3.58 166.50-6.21L166.50-6.21L166.50-6.21Q165.82-8.83 165.82-13.12L165.82-13.12L165.82-13.12Q165.82-17.41 167.30-21.31L167.30-21.31L167.30-21.31Q168.77-25.22 171.46-28.03L171.46-28.03L171.46-28.03Q176.96-33.92 186.05-33.92L186.05-33.92L186.05-33.92Q189.31-33.92 191.68-32.83L191.68-32.83L202.62-33.92L197.89-8.96L197.89-8.96Q197.70-8.19 197.70-6.78L197.70-6.78L197.70-6.78Q197.70-5.38 198.56-4.48L198.56-4.48L198.56-4.48Q199.42-3.58 200.70-3.46L200.70-3.46L200.70-3.46Q200.06-1.28 197.73 0L197.73 0L197.73 0Q195.39 1.28 192.77 1.28L192.77 1.28L192.77 1.28Q190.14 1.28 188.38 0.29L188.38 0.29L188.38 0.29Q186.62-0.70 186.11-2.37L186.11-2.37L186.11-2.37Q185.09-0.77 182.91 0.26L182.91 0.26L182.91 0.26Q180.74 1.28 177.82 1.28L177.82 1.28L177.82 1.28Q174.91 1.28 172.54 0.51L172.54 0.51L172.54 0.51Q170.18-0.26 168.67-1.92ZM182.18-27.90L182.18-27.90L182.18-27.90Q181.44-26.75 180.80-24.80L180.80-24.80L180.80-24.80Q180.16-22.85 179.10-17.63L179.10-17.63L179.10-17.63Q178.05-12.42 178.05-8.70L178.05-8.70L178.05-8.70Q178.05-4.99 178.62-3.90L178.62-3.90L178.62-3.90Q179.20-2.82 180.22-2.82L180.22-2.82L180.22-2.82Q182.27-2.82 183.78-4.77L183.78-4.77L183.78-4.77Q185.28-6.72 185.86-10.18L185.86-10.18L189.25-28.93L189.25-28.93Q187.90-30.08 186.34-30.08L186.34-30.08L186.34-30.08Q184.77-30.08 183.84-29.57L183.84-29.57L183.84-29.57Q182.91-29.06 182.18-27.90ZM225.22-22.46L225.22-22.46L225.22-22.46Q226.11-24.83 226.11-26.88L226.11-26.88L226.11-26.88Q226.11-30.66 223.04-30.66L223.04-30.66L223.04-30.66Q221.44-30.66 220.13-29.22L220.13-29.22L220.13-29.22Q218.82-27.78 218.82-25.98L218.82-25.98L218.82-25.98Q218.82-24.70 219.84-23.68L219.84-23.68L219.84-23.68Q221.31-22.27 225.09-19.97L225.09-19.97L225.09-19.97Q228.86-17.66 230.30-15.78L230.30-15.78L230.30-15.78Q231.74-13.89 231.74-11.30L231.74-11.30L231.74-11.30Q231.74-8.70 230.50-6.34L230.50-6.34L230.50-6.34Q229.25-3.97 227.01-2.30L227.01-2.30L227.01-2.30Q222.21 1.28 214.53 1.28L214.53 1.28L214.53 1.28Q210.37 1.28 207.17-0.90L207.17-0.90L207.17-0.90Q203.97-3.01 203.97-5.50L203.97-5.50L203.97-5.50Q203.97-8 205.79-9.47L205.79-9.47L205.79-9.47Q207.62-10.94 210.30-10.94L210.30-10.94L210.30-10.94Q212.99-10.94 214.66-9.92L214.66-9.92L214.66-9.92Q213.82-7.81 213.82-6.40L213.82-6.40L213.82-6.40Q213.82-2.18 217.41-2.18L217.41-2.18L217.41-2.18Q218.94-2.18 219.97-3.14L219.97-3.14L219.97-3.14Q220.99-4.10 220.99-5.76L220.99-5.76L220.99-5.76Q220.99-9.02 215.49-12.48L215.49-12.48L215.49-12.48Q211.01-15.42 209.98-16.58L209.98-16.58L209.98-16.58Q208.26-18.62 208.26-21.18L208.26-21.18L208.26-21.18Q208.26-23.74 209.47-26.18L209.47-26.18L209.47-26.18Q210.69-28.61 212.93-30.34L212.93-30.34L212.93-30.34Q217.60-33.92 225.73-33.92L225.73-33.92L225.73-33.92Q229.89-33.92 232.35-32.26L232.35-32.26L232.35-32.26Q234.82-30.59 234.82-27.78L234.82-27.78L234.82-27.78Q234.82-24.96 233.12-23.36L233.12-23.36L233.12-23.36Q231.42-21.76 228.35-21.76L228.35-21.76L228.35-21.76Q226.24-21.76 225.22-22.46ZM249.50 0.64L249.50 0.64L249.50 0.64Q246.46 0 244.90-0.29L244.90-0.29L244.90-0.29Q243.33-0.58 241.50-0.58L241.50-0.58L241.50-0.58Q239.68-0.58 237.89 0.06L237.89 0.06L237.89 0.06Q236.93-0.51 236.32-1.66L236.32-1.66L236.32-1.66Q235.71-2.82 235.71-4.61L235.71-4.61L235.71-4.61Q235.71-8.38 239.55-11.26L239.55-11.26L255.81-22.98L255.81-22.98Q251.26-24.26 247.14-24.26L247.14-24.26L247.14-24.26Q243.01-24.26 241.54-21.44L241.54-21.44L241.54-21.44Q239.36-24 239.36-28.03L239.36-28.03L239.36-28.03Q239.36-30.72 241.31-32.48L241.31-32.48L241.31-32.48Q243.26-34.24 247.36-34.24L247.36-34.24L247.36-34.24Q249.66-34.24 251.74-33.95L251.74-33.95L251.74-33.95Q253.82-33.66 255.68-33.41L255.68-33.41L259.14-32.90L259.14-32.90Q260.80-32.64 262.50-32.64L262.50-32.64L262.50-32.64Q264.19-32.64 265.47-33.34L265.47-33.34L265.47-33.34Q267.14-31.81 267.14-29.70L267.14-29.70L267.14-29.70Q267.14-26.37 263.04-22.91L263.04-22.91L246.85-10.82L246.85-10.82Q251.84-9.34 254.40-9.34L254.40-9.34L254.40-9.34Q259.78-9.34 262.08-11.90L262.08-11.90L262.08-11.90Q263.87-9.86 263.87-6.30L263.87-6.30L263.87-6.30Q263.87-2.75 261.57-0.74L261.57-0.74L261.57-0.74Q259.26 1.28 255.10 1.28L255.10 1.28L255.10 1.28Q252.54 1.28 249.50 0.64ZM281.76 0.64L281.76 0.64L281.76 0.64Q278.72 0 277.15-0.29L277.15-0.29L277.15-0.29Q275.58-0.58 273.76-0.58L273.76-0.58L273.76-0.58Q271.94-0.58 270.14 0.06L270.14 0.06L270.14 0.06Q269.18-0.51 268.58-1.66L268.58-1.66L268.58-1.66Q267.97-2.82 267.97-4.61L267.97-4.61L267.97-4.61Q267.97-8.38 271.81-11.26L271.81-11.26L288.06-22.98L288.06-22.98Q283.52-24.26 279.39-24.26L279.39-24.26L279.39-24.26Q275.26-24.26 273.79-21.44L273.79-21.44L273.79-21.44Q271.62-24 271.62-28.03L271.62-28.03L271.62-28.03Q271.62-30.72 273.57-32.48L273.57-32.48L273.57-32.48Q275.52-34.24 279.62-34.24L279.62-34.24L279.62-34.24Q281.92-34.24 284-33.95L284-33.95L284-33.95Q286.08-33.66 287.94-33.41L287.94-33.41L291.39-32.90L291.39-32.90Q293.06-32.64 294.75-32.64L294.75-32.64L294.75-32.64Q296.45-32.64 297.73-33.34L297.73-33.34L297.73-33.34Q299.39-31.81 299.39-29.70L299.39-29.70L299.39-29.70Q299.39-26.37 295.30-22.91L295.30-22.91L279.10-10.82L279.10-10.82Q284.10-9.34 286.66-9.34L286.66-9.34L286.66-9.34Q292.03-9.34 294.34-11.90L294.34-11.90L294.34-11.90Q296.13-9.86 296.13-6.30L296.13-6.30L296.13-6.30Q296.13-2.75 293.82-0.74L293.82-0.74L293.82-0.74Q291.52 1.28 287.36 1.28L287.36 1.28L287.36 1.28Q284.80 1.28 281.76 0.64Z"></path></g></g><style>text {
  font-size: 64px;
  font-family: Arial Black;
  dominant-baseline: central;
  text-anchor: middle;
}</style></svg>