<?xml version="1.0" standalone="no"?>
<!DOCTYPE svg PUBLIC "-//W3C//DTD SVG 20010904//EN"
 "http://www.w3.org/TR/2001/REC-SVG-20010904/DTD/svg10.dtd">
<svg version="1.0" xmlns="http://www.w3.org/2000/svg"
 width="1870.000000pt" height="1870.000000pt" viewBox="0 0 1870.000000 1870.000000"
 preserveAspectRatio="xMidYMid meet">

<g transform="translate(0.000000,1870.000000) scale(0.100000,-0.100000)"
fill="#000000" stroke="none">
<path d="M9178 17975 c-582 -111 -886 -754 -601 -1275 74 -136 189 -253 326
-333 l64 -38 6 -1702 c4 -936 7 -1991 7 -2344 l0 -643 33 0 c62 0 692 53 698
59 6 5 18 2686 19 4076 l1 570 62 35 c90 51 241 205 296 303 249 442 84 990
-366 1216 -156 78 -374 108 -545 76z"/>
<path d="M7210 16965 c-183 -31 -398 -101 -761 -248 -226 -92 -335 -130 -441
-158 -296 -75 -697 -130 -1193 -164 -531 -35 -724 -39 -2320 -40 -875 -1
-1623 -5 -1662 -9 -88 -10 -89 -12 -34 -122 187 -372 813 -698 1516 -789 170
-23 444 -23 584 -1 58 9 108 16 113 16 4 0 8 -26 8 -58 0 -72 30 -193 65 -261
14 -28 55 -82 91 -121 103 -109 228 -178 412 -227 88 -24 115 -26 292 -27 174
-1 204 2 283 22 49 13 90 22 92 20 1 -1 10 -41 19 -87 30 -146 90 -263 189
-369 330 -349 1016 -377 1458 -60 l75 54 21 -87 c38 -161 158 -375 248 -443
103 -79 242 -111 450 -103 155 5 222 20 330 70 l70 33 54 -53 c114 -114 260
-158 491 -150 203 7 305 30 730 162 113 35 230 70 260 78 l55 13 3 1130 2
1129 -142 0 c-140 0 -145 1 -210 32 -74 35 -133 88 -174 158 -15 26 -57 121
-94 210 -75 182 -128 265 -204 324 -69 54 -187 108 -271 126 -85 18 -299 18
-405 0z"/>
<path d="M11081 16970 c-134 -28 -246 -85 -329 -168 -64 -63 -108 -140 -171
-300 -60 -150 -97 -218 -147 -272 -87 -93 -186 -126 -358 -118 l-106 5 2
-1131 3 -1130 55 -13 c30 -8 155 -46 277 -84 390 -123 561 -159 758 -159 196
0 326 45 437 149 l62 58 55 -29 c100 -51 183 -69 342 -75 294 -11 440 50 564
237 71 106 115 216 149 372 l6 27 65 -48 c242 -181 597 -265 918 -216 315 47
561 211 677 450 39 79 70 184 70 237 0 15 4 29 9 32 5 4 47 -3 93 -15 121 -30
343 -37 479 -14 214 35 371 107 490 225 111 109 160 216 175 379 7 89 6 88 80
71 91 -21 314 -31 464 -20 701 49 1386 356 1636 731 45 69 92 175 81 186 -16
15 -733 23 -1697 17 -1778 -10 -2576 24 -3250 141 -269 47 -397 85 -747 223
-542 215 -678 252 -933 257 -91 2 -185 0 -209 -5z"/>
<path d="M7210 13415 c-528 -68 -922 -285 -1070 -590 -41 -83 -62 -169 -80
-320 -38 -333 36 -645 212 -902 75 -110 234 -271 363 -368 153 -114 280 -189
498 -295 l188 -92 92 84 c335 305 613 468 992 583 65 20 121 37 122 39 2 1
-38 8 -88 15 -263 35 -598 111 -821 187 -240 81 -513 229 -643 346 -101 91
-124 196 -70 316 32 72 73 112 139 137 102 39 203 1 422 -160 127 -93 216
-146 294 -176 62 -23 223 -56 322 -64 l78 -7 -14 39 c-44 124 -128 255 -220
341 -37 34 -63 62 -59 62 5 0 50 -27 100 -59 111 -72 240 -193 314 -295 61
-85 63 -85 167 -61 112 26 208 88 242 155 30 60 41 152 29 255 -24 215 -86
367 -200 489 -153 164 -382 275 -678 328 -149 26 -476 33 -631 13z m1228 -481
c46 -51 10 -134 -58 -134 -69 0 -107 92 -57 137 42 39 77 38 115 -3z"/>
<path d="M11040 13423 c-358 -38 -655 -161 -821 -341 -99 -106 -135 -174 -182
-342 -16 -59 -21 -105 -21 -220 -1 -140 0 -147 26 -191 44 -75 138 -132 256
-158 90 -19 92 -18 156 69 79 107 198 219 309 291 50 32 94 59 98 59 3 0 -31
-37 -75 -83 -45 -45 -96 -108 -114 -139 -48 -81 -103 -212 -91 -216 20 -8 215
20 304 43 122 31 201 72 380 200 228 163 306 194 409 165 99 -27 179 -142 180
-255 0 -108 -42 -167 -199 -285 -389 -289 -970 -475 -1595 -510 -631 -35
-1140 -86 -1411 -140 -371 -75 -797 -318 -1072 -610 -207 -219 -344 -457 -409
-710 -52 -201 -50 -470 4 -675 65 -243 176 -394 416 -565 96 -68 313 -200 330
-200 6 0 141 67 299 149 158 82 376 194 483 250 107 55 196 104 198 109 1 4
-37 40 -85 78 -114 89 -267 243 -326 326 -65 90 -95 161 -107 250 -30 215 67
389 273 487 183 88 395 126 862 156 578 37 843 79 1240 194 518 150 1112 434
1396 667 83 68 215 202 273 276 181 236 266 519 253 843 -13 312 -68 463 -228
626 -207 211 -541 349 -969 399 -79 9 -362 11 -440 3z m-632 -486 c31 -29 30
-80 -4 -114 -21 -21 -32 -24 -62 -19 -67 10 -93 76 -52 129 32 40 75 42 118 4z"/>
<path d="M8210 12167 c17 -37 33 -87 36 -110 5 -36 0 -49 -30 -97 -80 -122
-29 -171 179 -169 l100 1 -75 13 c-96 17 -125 28 -145 59 -16 24 -15 28 10 83
15 32 27 73 27 91 0 37 -43 110 -97 162 l-36 35 31 -68z"/>
<path d="M10500 12183 c-51 -59 -80 -113 -80 -151 0 -16 12 -55 26 -86 14 -32
23 -64 19 -75 -8 -26 -64 -51 -149 -66 l-71 -13 96 -1 c119 -1 191 18 208 55
14 32 8 55 -35 117 -19 27 -34 59 -34 72 0 25 30 117 54 163 9 18 15 32 12 32
-2 0 -23 -21 -46 -47z"/>
<path d="M10935 10444 c-198 -47 -479 -112 -625 -145 -146 -33 -273 -63 -284
-66 -13 -4 0 -14 52 -39 189 -92 259 -235 222 -461 -24 -153 -86 -269 -198
-375 -165 -155 -375 -254 -882 -413 -340 -107 -463 -156 -715 -285 -362 -185
-642 -388 -790 -573 -323 -404 -307 -983 39 -1353 43 -47 107 -105 141 -130
57 -40 197 -112 250 -128 14 -4 88 30 240 110 121 63 294 154 385 201 91 47
169 89 173 93 4 4 -19 23 -52 44 -217 134 -324 342 -291 570 6 44 22 105 35
134 52 114 223 251 446 356 138 65 180 80 671 245 213 72 468 163 565 202 493
198 820 412 1030 674 78 97 125 192 160 322 24 90 27 115 27 293 1 216 -14
313 -76 489 -31 89 -115 260 -146 297 l-17 22 -360 -84z"/>
<path d="M9310 10223 c-184 -19 -337 -36 -339 -38 -2 -2 0 -236 5 -518 l9
-514 365 99 c201 55 366 101 366 101 1 1 5 206 9 455 l8 452 -44 -1 c-24 -1
-195 -17 -379 -36z"/>
<path d="M10525 8286 c-33 -13 -204 -76 -380 -141 -176 -65 -321 -119 -322
-120 -1 0 20 -45 47 -100 151 -306 182 -595 82 -779 -80 -148 -222 -226 -770
-422 -310 -111 -393 -144 -547 -219 -377 -183 -593 -420 -675 -741 -45 -175
-51 -381 -14 -524 28 -114 88 -223 164 -304 38 -40 84 -81 103 -91 l35 -18
128 85 c140 93 297 187 439 263 122 66 119 62 95 96 -80 111 -98 247 -48 349
59 118 188 218 408 315 97 44 281 108 720 251 542 176 751 301 917 549 217
323 271 761 136 1105 -76 192 -225 360 -400 449 -50 25 -43 25 -118 -3z"/>
<path d="M9341 7847 l-343 -132 7 -395 c4 -217 8 -396 9 -397 1 -1 670 218
674 222 8 7 14 835 6 835 -5 -1 -164 -60 -353 -133z"/>
<path d="M10135 6030 c-245 -82 -349 -122 -348 -131 1 -8 12 -40 23 -73 24
-68 36 -196 26 -280 -14 -112 -89 -164 -506 -356 -341 -156 -485 -232 -645
-338 -145 -96 -294 -236 -360 -336 -122 -188 -145 -418 -60 -592 63 -129 210
-245 375 -295 60 -19 98 -24 193 -24 106 0 120 2 133 19 24 33 17 123 -21 257
-45 159 -53 241 -28 289 32 62 156 122 585 286 464 177 667 289 843 468 142
143 210 263 257 454 32 131 32 372 -1 497 -30 114 -92 275 -106 274 -5 -1
-167 -54 -360 -119z"/>
<path d="M9346 5747 l-309 -121 7 -165 c4 -91 9 -167 11 -169 4 -5 586 246
596 257 9 8 19 321 11 320 -4 0 -146 -55 -316 -122z"/>
<path d="M10165 4561 c-71 -37 -204 -101 -295 -143 -134 -61 -165 -79 -163
-94 21 -176 22 -198 13 -266 -6 -40 -21 -93 -33 -118 -45 -88 -249 -229 -705
-484 -396 -222 -576 -343 -784 -529 -96 -86 -244 -245 -235 -253 2 -3 58 16
123 41 66 26 297 111 514 190 582 211 772 286 1050 411 275 125 527 273 613
360 139 141 182 444 107 759 -21 91 -58 196 -68 194 -4 -1 -65 -31 -137 -68z"/>
<path d="M9345 4200 l-260 -108 4 -193 c2 -107 5 -196 7 -198 2 -2 117 61 256
141 l253 145 6 39 c4 21 9 94 12 162 5 92 3 122 -6 121 -7 0 -129 -50 -272
-109z"/>
<path d="M9841 3247 l-184 -90 24 -18 c52 -41 287 -174 413 -235 230 -110 420
-164 583 -164 l85 0 -31 42 c-96 130 -246 271 -402 378 -86 59 -255 159 -289
171 -8 3 -98 -35 -199 -84z"/>
<path d="M9341 3027 l-214 -92 7 -175 c8 -213 41 -764 61 -1030 42 -547 93
-898 137 -942 28 -28 42 -11 67 80 55 209 109 790 156 1677 29 555 29 575 14
574 -8 0 -110 -42 -228 -92z"/>
</g>
</svg>
