<svg xmlns="http://www.w3.org/2000/svg" width="512" height="512" viewBox="0 0 512 512" version="1.1">
	<path d="M 238.107 31.071 C 214.806 33.706, 194.463 39.865, 172.495 50.937 C 136.231 69.215, 111.698 93.484, 93.581 129 C 60.864 193.136, 65.885 271.525, 106.294 327.500 C 113.646 337.684, 125.155 351, 126.604 351 C 129.082 351, 132 345.858, 132 341.492 C 132 337.857, 131.249 336.339, 126.722 330.815 C 113.733 314.969, 105.246 300.931, 98.591 284.285 C 93.342 271.155, 88.566 252.516, 86.915 238.721 C 85.449 226.464, 86.228 198.514, 88.356 187 C 96.204 144.535, 118.978 104.585, 148.667 81.201 C 196.718 43.355, 261.343 32.858, 312.707 54.555 C 375.298 80.995, 413.207 135.275, 418.977 206.720 C 422.663 252.356, 405.535 301.143, 373.677 335.754 C 370.005 339.744, 367 343.699, 367 344.544 C 367 346.468, 370.613 353.643, 372.019 354.512 C 373.656 355.523, 388.409 340.573, 396.898 329.300 C 410.541 311.182, 425.093 279.241, 429.885 256.894 C 440.617 206.850, 428.430 148.772, 398.222 106 C 389.572 93.753, 368.238 72.420, 356 63.782 C 332.746 47.367, 308.530 37.213, 281.500 32.542 C 270.037 30.561, 248.944 29.846, 238.107 31.071 M 236.162 51.141 C 228.104 72.973, 226.756 80.798, 229.380 90.515 C 230.269 93.807, 231.607 98.750, 232.353 101.500 C 233.099 104.250, 233.981 108.525, 234.312 111 C 234.819 114.791, 234.475 114.240, 232.128 107.500 C 227.787 95.031, 224.458 89.405, 217.750 83.203 C 214.358 80.067, 208.370 74.185, 204.444 70.133 C 197.990 63.472, 197.100 62.876, 195.153 63.918 C 192.451 65.364, 192.463 66.278, 195.250 71.934 C 197.368 76.232, 197.483 77.547, 197.214 94.335 C 196.887 114.716, 197.781 119.921, 203.679 131.980 C 206.328 137.398, 209.563 141.744, 215.409 147.741 C 219.849 152.295, 223.791 156.804, 224.170 157.761 C 225.068 160.026, 225.194 167, 224.338 167 C 223.974 167, 221.742 165.867, 219.379 164.482 C 215.925 162.458, 214.266 160.395, 210.917 153.958 C 205.957 144.424, 200.726 139.456, 190.132 134.221 C 182.736 130.565, 182.444 130.510, 170.647 130.505 C 161.985 130.501, 158.556 130.844, 158.254 131.744 C 158.025 132.428, 158.887 133.395, 160.169 133.893 C 163.257 135.093, 167.089 139.364, 170.580 145.500 C 174.658 152.665, 183.524 161.150, 190.500 164.564 C 196.165 167.336, 197.119 167.487, 207.599 167.274 C 218.262 167.058, 218.789 167.146, 221.029 169.531 C 222.522 171.120, 223.590 173.808, 224.001 177.006 C 224.612 181.767, 223.863 183.692, 222.641 180.506 C 221.682 178.008, 215.726 175.008, 211.718 175.004 C 206.888 174.999, 201.469 177.256, 200.080 179.850 C 199.486 180.960, 199 183.665, 199 185.862 C 199 193.728, 207.932 196.574, 216.626 191.479 L 220.927 188.959 222.464 191.304 C 223.327 192.621, 225.084 200.998, 226.471 210.402 C 228.927 227.061, 234.187 249.153, 239.869 266.675 C 241.505 271.721, 243.418 279.266, 244.120 283.441 C 245.244 290.131, 245.209 291.220, 243.822 292.606 C 242.415 294.013, 241.943 294.022, 239.361 292.687 C 235.749 290.819, 226.790 281.429, 224.625 277.242 C 222.462 273.059, 222.577 271.269, 225.057 270.482 C 227.953 269.563, 230.769 263.427, 229.319 261.196 C 228.708 260.255, 227.219 259.617, 225.975 259.762 C 224.742 259.906, 223.103 259.501, 222.333 258.862 C 221.151 257.880, 221.242 257.372, 222.917 255.589 C 224.008 254.428, 225.195 251.632, 225.556 249.376 C 226.112 245.900, 225.862 244.949, 223.917 243.138 C 222.655 241.962, 221.308 241, 220.923 241 C 220.538 241, 219.936 239.470, 219.585 237.600 C 218.286 230.677, 213.425 230.375, 211.588 237.104 C 211.078 238.972, 210.602 240.597, 210.531 240.716 C 210.460 240.834, 208.229 239.831, 205.572 238.486 C 202.916 237.141, 200.350 236.283, 199.871 236.580 C 198.017 237.726, 199.150 240.619, 202.500 243.293 C 207.197 247.040, 206.938 248.345, 202.028 245.667 C 198.667 243.833, 197.742 243.695, 196.013 244.768 C 193.529 246.309, 189.961 244.753, 185.864 240.339 C 179.754 233.757, 178.627 228.431, 181.914 221.662 C 183.968 217.433, 184.122 216.351, 183.141 213.075 C 181.230 206.697, 175.627 203.496, 169.313 205.176 C 157.538 208.310, 161.108 227, 173.482 227 C 175.047 227, 176.296 227.688, 176.656 228.750 C 179.607 237.464, 182.167 241.118, 189.898 247.655 C 194.351 251.420, 197.996 254.774, 197.997 255.108 C 197.999 255.442, 196.088 256.118, 193.750 256.609 C 190.440 257.305, 189.429 258, 189.180 259.751 C 188.914 261.624, 189.332 262.003, 191.680 262.015 C 193.231 262.024, 195.164 262.451, 195.976 262.964 C 197.236 263.761, 197.126 264.339, 195.226 266.908 C 194.002 268.564, 193 270.612, 193 271.460 C 193 274.100, 199.865 273.314, 205.914 269.979 C 208.892 268.338, 211.367 267.109, 211.414 267.248 C 211.461 267.386, 213.212 270.949, 215.304 275.164 C 219.928 284.481, 228.480 294.066, 237.932 300.523 C 245.901 305.969, 247.272 308.258, 248.991 319 C 251.116 332.283, 254.713 346.012, 261.843 368.061 C 271.724 398.619, 274.229 410.200, 274.781 427.889 C 275.291 444.248, 274.221 452.735, 269.935 466.314 C 268.340 471.366, 267.027 476.783, 267.018 478.351 L 267 481.201 279.750 480.483 C 286.762 480.088, 292.684 479.596, 292.910 479.389 C 293.135 479.183, 292.260 474.398, 290.965 468.757 C 289.611 462.860, 288.587 455.130, 288.555 450.572 L 288.500 442.645 296 437.367 C 316.280 423.096, 326.535 403.437, 324.595 382.546 C 323.185 367.355, 321.579 365.563, 311.946 368.424 C 309.026 369.291, 305.256 369.996, 303.568 369.990 C 299.152 369.976, 290.828 365.805, 285.600 360.985 C 280.915 356.667, 279.490 356.582, 277.989 360.530 C 274.761 369.018, 289.107 382.751, 303.146 384.614 C 305.840 384.971, 308.268 385.625, 308.541 386.067 C 308.814 386.508, 307.342 388.110, 305.269 389.626 C 295.734 396.600, 292 401.474, 292 406.950 C 292 410.733, 293.516 410.818, 297.332 407.250 L 300.273 404.500 299.689 408.312 C 298.908 413.415, 295.844 419.500, 294.056 419.500 C 291.644 419.500, 289.252 414.093, 285.607 400.401 C 281.969 386.739, 277.869 373.968, 271.192 355.500 C 263.709 334.805, 258.566 309.559, 257.286 287.237 C 256.710 277.205, 256.778 276.766, 260.273 267.737 C 262.239 262.657, 264.596 256.358, 265.510 253.741 C 267.839 247.074, 272.146 242.994, 276.827 243.022 C 281.719 243.052, 283.734 244.796, 291.729 255.925 C 302.145 270.425, 313.791 277.040, 328.771 276.967 C 339.365 276.916, 358.682 273.746, 360.701 271.728 C 362.335 270.093, 362.168 269.739, 357.544 265.045 L 352.662 260.088 359.581 260.667 C 367.701 261.347, 377.110 259.298, 383.756 255.403 C 386.123 254.015, 391.309 250.153, 395.280 246.819 C 399.251 243.485, 404.902 239.397, 407.837 237.734 C 416.678 232.726, 415.954 230.444, 404.500 227.226 C 400.650 226.144, 391.875 223.589, 385 221.549 C 368.809 216.743, 360.989 216.890, 344.545 222.312 C 338.520 224.298, 333.471 225.804, 333.325 225.659 C 333.180 225.513, 336.416 223.951, 340.517 222.188 C 349.192 218.457, 358.021 216, 362.750 216 C 367.568 216, 372.792 212.970, 378.646 206.780 C 387.767 197.136, 391.042 187.415, 390.867 170.500 C 390.734 157.634, 390.072 154.500, 387.490 154.500 C 385.719 154.500, 385.425 155.410, 384.814 162.773 C 383.511 178.497, 378.280 190.909, 369.139 199.972 C 365.760 203.323, 361.997 206.014, 359.750 206.688 C 355.085 208.087, 355.030 207.079, 359.500 202.132 C 363.568 197.629, 364.133 193.133, 361.023 190.023 C 358.158 187.158, 356.279 188.430, 353.121 195.375 C 351.589 198.744, 348.006 204.042, 345.159 207.149 C 339.307 213.537, 328 221.583, 323.500 222.563 C 320.553 223.204, 320.538 223.187, 322.661 221.614 C 326.351 218.877, 334.149 207.830, 337.564 200.500 C 341.433 192.195, 343.046 184.135, 343.232 172.181 C 343.379 162.728, 342.888 161, 340.052 161 C 338.726 161, 338.034 162.033, 337.537 164.750 C 336.720 169.223, 335.319 171.504, 328.338 179.734 C 322.813 186.247, 319.934 191.310, 314.395 204.247 C 310.169 214.118, 304.211 222.893, 298.768 227.263 C 291.872 232.800, 291.117 232.773, 296.822 227.194 C 300.927 223.180, 303.361 219.418, 307.467 210.745 C 310.395 204.560, 313.571 197.250, 314.525 194.500 C 317.108 187.051, 317.553 175.584, 315.600 166.807 C 312.867 154.521, 305.039 140, 301.149 140 C 298.016 140, 297.183 141.928, 297.727 147.925 C 298.185 152.980, 297.760 154.868, 294.123 163.933 C 288.781 177.249, 287.026 184.209, 286.885 192.644 L 286.770 199.500 284.967 192.500 C 283.975 188.650, 283.126 182.912, 283.082 179.750 C 282.977 172.353, 280.776 171.933, 277.846 178.750 C 272.872 190.326, 269.655 197, 269.051 197 C 268.692 197, 267.383 194.910, 266.143 192.357 C 264.902 189.803, 263.522 188.115, 263.076 188.607 C 261.862 189.944, 258.144 204.720, 257.441 211 C 257.038 214.604, 257.402 219.086, 258.499 224 C 261.327 236.677, 261.404 239.915, 259.029 246.227 C 256.953 251.742, 253.190 256, 250.391 256 C 249.654 256, 248.420 254.762, 247.649 253.250 C 243.798 245.695, 237.007 221.275, 235.023 207.847 C 233.298 196.170, 234.041 195.021, 248.743 186.630 C 256.606 182.143, 263.853 176.997, 269.640 171.794 C 279.752 162.702, 281.110 160.681, 278.715 158.286 C 277.210 156.781, 276.646 156.784, 271.293 158.329 C 268.107 159.248, 262.458 160.669, 258.741 161.488 C 243.531 164.836, 235.157 171.910, 233.401 182.895 C 233.040 185.153, 232.414 187, 232.010 187 C 230.912 187, 229.865 174.697, 230.581 170.216 C 231.320 165.598, 232.218 164.969, 249.500 156.971 C 266.684 149.019, 268.809 147.809, 278.249 140.606 C 289.622 131.928, 292.938 130.008, 296.559 130.004 C 300.389 129.999, 303.529 127.820, 302.724 125.724 C 301.939 123.676, 286.911 116.304, 280.460 114.801 L 275.420 113.626 279.114 106.272 C 282.660 99.214, 285 89.990, 285 83.069 C 285 80.692, 285.861 78.998, 288.162 76.849 C 291.081 74.122, 291.199 73.770, 289.698 72.270 C 288.197 70.769, 287.436 70.780, 279.786 72.420 C 269.199 74.690, 261.204 77.946, 254.954 82.534 L 250 86.170 249.994 82.335 C 249.986 76.763, 248.351 71.505, 243.919 62.807 C 241.764 58.575, 240 54.243, 240 53.179 C 240 52.115, 239.332 50.691, 238.517 50.014 C 237.292 48.997, 236.881 49.194, 236.162 51.141 M 237.607 82.582 C 236.646 85.085, 237.039 91.186, 238.403 94.965 L 239.655 98.429 240.827 95.065 C 242.262 90.950, 242.278 89.542, 240.947 84.750 C 239.844 80.776, 238.608 79.974, 237.607 82.582 M 269.277 87.685 C 266.404 89.233, 262.129 92.124, 259.777 94.109 C 255.805 97.461, 247.438 110.088, 245.081 116.287 C 244.129 118.791, 244.587 118.614, 251.668 113.739 C 263.021 105.924, 269.573 99.573, 272.542 93.505 C 273.988 90.548, 275.020 87.396, 274.836 86.500 C 274.548 85.102, 273.757 85.270, 269.277 87.685 M 210.580 97.425 C 208.940 106.169, 214.639 123.441, 221.988 132 L 224.993 135.500 224.360 129.500 C 223.364 120.070, 220.302 109.261, 216.373 101.308 C 214.387 97.289, 212.415 94, 211.992 94 C 211.569 94, 210.933 95.541, 210.580 97.425 M 244.464 97.070 C 242.384 101.092, 238.862 111.195, 239.364 111.698 C 239.568 111.901, 241.402 108.185, 243.440 103.440 C 247.080 94.966, 247.770 90.677, 244.464 97.070 M 261.356 123.082 C 255.262 125.426, 247.444 132.361, 246.459 136.297 C 246.075 137.835, 245.986 139.319, 246.262 139.596 C 246.539 139.872, 249.704 137.873, 253.297 135.154 C 256.889 132.435, 263.434 128.405, 267.842 126.199 C 272.249 123.993, 275.588 121.921, 275.261 121.594 C 274.022 120.355, 266.298 121.182, 261.356 123.082 M 239.526 134.950 C 238.687 136.573, 238.039 138.711, 238.086 139.700 C 238.143 140.897, 238.432 140.643, 238.948 138.942 C 239.375 137.534, 240.252 135.397, 240.897 134.192 C 241.543 132.986, 241.841 132, 241.561 132 C 241.281 132, 240.365 133.328, 239.526 134.950 M 231.520 154.658 C 231.174 157.321, 230.672 160.550, 230.405 161.834 C 230.131 163.152, 230.330 163.914, 230.862 163.586 C 231.906 162.940, 233.521 151.187, 232.680 150.347 C 232.389 150.055, 231.867 151.995, 231.520 154.658 M 149.308 161.010 C 143.982 163.155, 142.472 171.550, 146.595 176.104 C 149.041 178.808, 154.157 179.487, 157.818 177.594 C 164.583 174.096, 165.880 168.034, 160.923 163.077 C 157.718 159.872, 153.844 159.183, 149.308 161.010 M 301.199 180.397 C 299.723 185.950, 298.414 198, 299.287 198 C 300.355 198, 303.141 183.321, 302.819 179.392 L 302.500 175.500 301.199 180.397 M 171 182.752 C 168.030 184.235, 167.452 185.085, 167.183 188.364 C 166.548 196.104, 175.053 200.038, 180.545 194.545 C 184.487 190.604, 183.730 184.946, 178.928 182.463 C 175.381 180.628, 175.240 180.634, 171 182.752 M 285.063 209.145 C 284.963 214.943, 281.247 225.534, 278.219 228.656 C 276.702 230.220, 273.670 232.911, 271.480 234.636 C 267.085 238.098, 267.196 239.996, 271.657 237.656 C 281.188 232.656, 289.303 215.952, 286.098 207.930 C 285.197 205.677, 285.122 205.765, 285.063 209.145 M 147.718 209.250 C 147.093 210.995, 148.798 214, 150.413 214 C 152.402 214, 154.124 211.488, 153.410 209.627 C 152.678 207.718, 148.370 207.432, 147.718 209.250 M 347.732 233.584 C 343.460 234.356, 338.314 235.678, 336.297 236.520 C 332.651 238.044, 332.643 238.061, 334.809 239.579 C 342.969 245.294, 356.284 248.500, 365.580 246.987 C 371.131 246.084, 379.806 242.483, 383.398 239.591 C 386.300 237.255, 384.003 235.388, 375.984 233.564 C 367.708 231.682, 358.214 231.689, 347.732 233.584 M 296.500 244.866 C 300.900 246.962, 307.533 250.542, 311.240 252.822 C 318.659 257.384, 327.719 261.392, 332.750 262.339 C 337.446 263.222, 336.971 261.066, 331.196 255.292 C 322.281 246.376, 308.663 241.016, 295 241.042 L 288.500 241.055 296.500 244.866 M 266.989 255.250 C 264.374 259.539, 264.485 262.574, 267.477 268.578 C 270.585 274.814, 275.786 279.898, 283.500 284.240 C 286.800 286.097, 290.629 288.359, 292.010 289.266 C 293.721 290.390, 294.994 290.616, 296.010 289.975 C 297.300 289.161, 297.217 288.529, 295.389 285.267 C 294.229 283.195, 292.705 279.025, 292.003 276 C 288.743 261.955, 280.461 252, 272.035 252 C 269.651 252, 268.531 252.721, 266.989 255.250 M 110.667 257.667 C 109.445 258.888, 110.009 274.413, 111.506 280.760 C 115.058 295.826, 123.974 307.015, 141.836 318.822 C 148.071 322.943, 154.119 327.594, 155.275 329.157 C 156.430 330.721, 157.741 332, 158.188 332 C 159.354 332, 159.188 324.983, 157.875 318.799 C 155.688 308.502, 151.649 302.445, 138.020 289.030 C 125.083 276.295, 121.356 271.632, 116.618 262.250 C 114.169 257.402, 112.340 255.993, 110.667 257.667 M 215.813 258.683 C 216.534 258.972, 217.397 258.936, 217.729 258.604 C 218.061 258.272, 217.471 258.036, 216.417 258.079 C 215.252 258.127, 215.015 258.364, 215.813 258.683 M 387.784 267.599 C 387.497 268.094, 386.941 270.279, 386.548 272.453 C 384.798 282.129, 379.831 288.585, 364.998 300.461 C 351.035 311.640, 346.740 316.367, 342.704 325 C 340.259 330.230, 339.576 333.210, 339.210 340.250 C 338.734 349.405, 339.731 351.477, 341.990 346.025 C 343.660 341.992, 350.671 335.706, 357.160 332.424 C 374.298 323.756, 385.354 311.980, 389.415 298.068 C 391.461 291.058, 391.621 271.231, 389.653 268.540 C 388.912 267.526, 388.071 267.103, 387.784 267.599 M 211.500 343.385 C 198.527 356.696, 186.794 361.893, 168.001 362.655 C 161.675 362.912, 155.504 363.324, 154.286 363.571 C 151.179 364.201, 149.727 370.216, 149.718 382.500 C 149.706 398.145, 153.333 409.066, 162.506 421 C 170.340 431.193, 177.832 437.048, 198.233 448.919 C 210.590 456.109, 217.443 461.899, 221.998 468.998 C 225.856 475.009, 227.474 475.452, 226.574 470.250 C 225.527 464.197, 219.315 452.507, 214.110 446.795 C 210.045 442.334, 209.119 440.555, 208.225 435.500 C 206.769 427.254, 205.666 424.743, 201.454 420.081 C 196.888 415.027, 191.546 413.608, 188.986 416.769 C 187.365 418.770, 187.317 418.718, 187.162 414.776 C 186.753 404.324, 183.152 397.400, 171.930 385.486 C 167.569 380.856, 164 376.785, 164 376.440 C 164 376.095, 166.137 376.098, 168.750 376.447 C 180.759 378.051, 193.745 372.454, 205.543 360.589 C 213.254 352.834, 220 342.119, 220 337.627 C 220 335.038, 218.929 335.763, 211.500 343.385" stroke="none" fill="black" fill-rule="evenodd"/>
</svg>